<?xml version="1.0" encoding="UTF-8" standalone="no"?>
<!DOCTYPE svg PUBLIC "-//W3C//DTD SVG 1.1//EN" "http://www.w3.org/Graphics/SVG/1.1/DTD/svg11.dtd">
<svg width="100%" height="100%" viewBox="0 0 50 50" version="1.1" xmlns="http://www.w3.org/2000/svg" xmlns:xlink="http://www.w3.org/1999/xlink" xml:space="preserve" xmlns:serif="http://www.serif.com/" style="fill-rule:evenodd;clip-rule:evenodd;stroke-linecap:round;stroke-linejoin:bevel;stroke-miterlimit:1;">
    <g>
        <g transform="matrix(3.63997,0,0,3.63997,-16.0065,-14.0568)">
            <circle cx="7.812" cy="6.194" r="1.786" style="fill:rgb(255,97,136);"/>
            <path d="M7.835,4.409L7.858,4.409L7.881,4.41L7.904,4.411L7.927,4.412L7.95,4.414L7.972,4.415L7.995,4.418L8.017,4.42L8.04,4.423L8.062,4.426L8.084,4.429L8.106,4.433L8.128,4.436L8.15,4.44L8.172,4.445L8.194,4.449L8.215,4.454L8.237,4.459L8.258,4.465L8.28,4.47L8.301,4.476L8.322,4.482L8.343,4.489L8.364,4.495L8.385,4.502L8.405,4.509L8.426,4.517L8.446,4.524L8.467,4.532L8.487,4.54L8.507,4.549L8.527,4.557L8.547,4.566L8.567,4.575L8.586,4.585L8.606,4.594L8.625,4.604L8.644,4.614L8.663,4.624L8.682,4.634L8.701,4.645L8.719,4.656L8.738,4.667L8.756,4.678L8.774,4.69L8.793,4.702L8.81,4.714L8.828,4.726L8.846,4.738L8.863,4.751L8.88,4.763L8.898,4.776L8.914,4.789L8.931,4.803L8.948,4.816L8.964,4.83L8.981,4.844L8.997,4.858L9.013,4.873L9.028,4.887L9.044,4.902L9.059,4.917L9.075,4.932L9.09,4.947L9.105,4.962L9.119,4.978L9.134,4.994L9.148,5.01L9.162,5.026L9.176,5.042L9.19,5.058L9.204,5.075L9.217,5.092L9.23,5.109L9.243,5.126L9.256,5.143L9.268,5.161L9.281,5.178L9.293,5.196L9.305,5.214L9.317,5.232L9.328,5.25L9.339,5.268L9.35,5.287L9.361,5.306L9.372,5.324L9.382,5.343L9.393,5.362L9.403,5.381L9.412,5.401L9.422,5.42L9.431,5.44L9.44,5.46L9.449,5.479L9.458,5.499L9.466,5.519L9.474,5.54L9.482,5.56L9.49,5.58L9.497,5.601L9.504,5.622L9.511,5.642L9.518,5.663L9.524,5.684L9.53,5.705L9.536,5.727L9.542,5.748L9.547,5.769L9.552,5.791L9.557,5.813L9.562,5.834L9.566,5.856L9.57,5.878L9.574,5.9L9.577,5.922L9.581,5.945L9.584,5.967L9.586,5.989L9.589,6.012L9.591,6.034L9.593,6.057L9.594,6.08L9.596,6.102L9.597,6.125L9.597,6.148L9.598,6.171L9.598,6.194L9.598,6.217L9.597,6.24L9.597,6.263L9.596,6.286L9.594,6.309L9.593,6.331L9.591,6.354L9.589,6.377L9.586,6.399L9.584,6.421L9.581,6.444L9.577,6.466L9.574,6.488L9.57,6.51L9.566,6.532L9.562,6.554L9.557,6.576L9.552,6.597L9.547,6.619L9.542,6.64L9.536,6.662L9.53,6.683L9.524,6.704L9.518,6.725L9.511,6.746L9.504,6.767L9.497,6.787L9.49,6.808L9.482,6.828L9.474,6.849L9.466,6.869L9.458,6.889L9.449,6.909L9.44,6.929L9.431,6.948L9.422,6.968L9.412,6.987L9.403,7.007L9.393,7.026L9.382,7.045L9.372,7.064L9.361,7.083L9.35,7.101L9.339,7.12L9.328,7.138L9.317,7.156L9.305,7.174L9.293,7.192L9.281,7.21L9.268,7.228L9.256,7.245L9.243,7.262L9.23,7.279L9.217,7.296L9.204,7.313L9.19,7.33L9.176,7.346L9.162,7.362L9.148,7.379L9.134,7.395L9.119,7.41L9.105,7.426L9.09,7.441L9.075,7.457L9.059,7.472L9.044,7.487L9.028,7.501L9.013,7.516L8.997,7.53L8.981,7.544L8.964,7.558L8.948,7.572L8.931,7.585L8.914,7.599L8.898,7.612L8.88,7.625L8.863,7.638L8.846,7.65L8.828,7.663L8.81,7.675L8.793,7.687L8.774,7.698L8.756,7.71L8.738,7.721L8.719,7.732L8.701,7.743L8.682,7.754L8.663,7.764L8.644,7.774L8.625,7.784L8.606,7.794L8.586,7.804L8.567,7.813L8.547,7.822L8.527,7.831L8.507,7.839L8.487,7.848L8.467,7.856L8.446,7.864L8.426,7.871L8.405,7.879L8.385,7.886L8.364,7.893L8.343,7.9L8.322,7.906L8.301,7.912L8.28,7.918L8.258,7.924L8.237,7.929L8.215,7.934L8.194,7.939L8.172,7.944L8.15,7.948L8.128,7.952L8.106,7.956L8.084,7.959L8.062,7.963L8.04,7.965L8.017,7.968L7.995,7.971L7.972,7.973L7.95,7.975L7.927,7.976L7.904,7.978L7.881,7.979L7.858,7.979L7.835,7.98L7.812,7.98L7.789,7.98L7.766,7.979L7.743,7.979L7.72,7.978L7.698,7.976L7.675,7.975L7.652,7.973L7.63,7.971L7.607,7.968L7.585,7.965L7.563,7.963L7.54,7.959L7.518,7.956L7.496,7.952L7.474,7.948L7.453,7.944L7.431,7.939L7.409,7.934L7.388,7.929L7.366,7.924L7.345,7.918L7.324,7.912L7.303,7.906L7.282,7.9L7.261,7.893L7.24,7.886L7.219,7.879L7.199,7.871L7.178,7.864L7.158,7.856L7.138,7.848L7.117,7.839L7.098,7.831L7.078,7.822L7.058,7.813L7.038,7.804L7.019,7.794L7,7.784L6.98,7.774L6.961,7.764L6.942,7.754L6.924,7.743L6.905,7.732L6.887,7.721L6.868,7.71L6.85,7.698L6.832,7.687L6.814,7.675L6.796,7.663L6.779,7.65L6.761,7.638L6.744,7.625L6.727,7.612L6.71,7.599L6.693,7.585L6.677,7.572L6.66,7.558L6.644,7.544L6.628,7.53L6.612,7.516L6.596,7.501L6.58,7.487L6.565,7.472L6.55,7.457L6.535,7.441L6.52,7.426L6.505,7.41L6.491,7.395L6.476,7.379L6.462,7.362L6.448,7.346L6.435,7.33L6.421,7.313L6.408,7.296L6.394,7.279L6.382,7.262L6.369,7.245L6.356,7.228L6.344,7.21L6.332,7.192L6.32,7.174L6.308,7.156L6.297,7.138L6.285,7.12L6.274,7.101L6.263,7.083L6.253,7.064L6.242,7.045L6.232,7.026L6.222,7.007L6.212,6.987L6.203,6.968L6.193,6.948L6.184,6.929L6.176,6.909L6.167,6.889L6.159,6.869L6.151,6.849L6.143,6.828L6.135,6.808L6.128,6.787L6.12,6.767L6.114,6.746L6.107,6.725L6.1,6.704L6.094,6.683L6.088,6.662L6.083,6.64L6.077,6.619L6.072,6.597L6.067,6.576L6.063,6.554L6.059,6.532L6.054,6.51L6.051,6.488L6.047,6.466L6.044,6.444L6.041,6.421L6.038,6.399L6.036,6.377L6.034,6.354L6.032,6.331L6.03,6.309L6.029,6.286L6.028,6.263L6.027,6.24L6.027,6.217L6.027,6.194L6.027,6.171L6.027,6.148L6.028,6.125L6.029,6.102L6.03,6.08L6.032,6.057L6.034,6.034L6.036,6.012L6.038,5.989L6.041,5.967L6.044,5.945L6.047,5.922L6.051,5.9L6.054,5.878L6.059,5.856L6.063,5.834L6.067,5.813L6.072,5.791L6.077,5.769L6.083,5.748L6.088,5.727L6.094,5.705L6.1,5.684L6.107,5.663L6.114,5.642L6.12,5.622L6.128,5.601L6.135,5.58L6.143,5.56L6.151,5.54L6.159,5.519L6.167,5.499L6.176,5.479L6.184,5.46L6.193,5.44L6.203,5.42L6.212,5.401L6.222,5.381L6.232,5.362L6.242,5.343L6.253,5.324L6.263,5.306L6.274,5.287L6.285,5.268L6.297,5.25L6.308,5.232L6.32,5.214L6.332,5.196L6.344,5.178L6.356,5.161L6.369,5.143L6.382,5.126L6.394,5.109L6.408,5.092L6.421,5.075L6.435,5.058L6.448,5.042L6.462,5.026L6.476,5.01L6.491,4.994L6.505,4.978L6.52,4.962L6.535,4.947L6.55,4.932L6.565,4.917L6.58,4.902L6.596,4.887L6.612,4.873L6.628,4.858L6.644,4.844L6.66,4.83L6.677,4.816L6.693,4.803L6.71,4.789L6.727,4.776L6.744,4.763L6.761,4.751L6.779,4.738L6.796,4.726L6.814,4.714L6.832,4.702L6.85,4.69L6.868,4.678L6.887,4.667L6.905,4.656L6.924,4.645L6.942,4.634L6.961,4.624L6.98,4.614L7,4.604L7.019,4.594L7.038,4.585L7.058,4.575L7.078,4.566L7.098,4.557L7.117,4.549L7.138,4.54L7.158,4.532L7.178,4.524L7.199,4.517L7.219,4.509L7.24,4.502L7.261,4.495L7.282,4.489L7.303,4.482L7.324,4.476L7.345,4.47L7.366,4.465L7.388,4.459L7.409,4.454L7.431,4.449L7.453,4.445L7.474,4.44L7.496,4.436L7.518,4.433L7.54,4.429L7.563,4.426L7.585,4.423L7.607,4.42L7.63,4.418L7.652,4.415L7.675,4.414L7.698,4.412L7.72,4.411L7.743,4.41L7.766,4.409L7.789,4.409L7.812,4.408L7.835,4.409ZM7.796,4.958L7.78,4.958L7.764,4.959L7.748,4.959L7.732,4.96L7.717,4.961L7.701,4.963L7.685,4.964L7.67,4.966L7.654,4.968L7.639,4.97L7.624,4.972L7.608,4.975L7.593,4.977L7.578,4.98L7.563,4.983L7.548,4.986L7.533,4.99L7.518,4.993L7.503,4.997L7.489,5.001L7.474,5.005L7.459,5.009L7.445,5.013L7.43,5.018L7.416,5.023L7.402,5.028L7.388,5.033L7.374,5.038L7.359,5.043L7.346,5.049L7.332,5.055L7.318,5.061L7.304,5.067L7.291,5.073L7.277,5.08L7.264,5.086L7.25,5.093L7.237,5.1L7.224,5.107L7.211,5.114L7.198,5.121L7.185,5.129L7.172,5.137L7.159,5.144L7.147,5.152L7.134,5.161L7.122,5.169L7.11,5.177L7.097,5.186L7.085,5.194L7.073,5.203L7.061,5.212L7.05,5.221L7.038,5.231L7.026,5.24L7.015,5.25L7.004,5.259L6.993,5.269L6.981,5.279L6.97,5.289L6.96,5.299L6.949,5.31L6.938,5.32L6.928,5.331L6.918,5.341L6.907,5.352L6.897,5.363L6.887,5.374L6.878,5.386L6.868,5.397L6.858,5.408L6.849,5.42L6.84,5.431L6.83,5.443L6.821,5.455L6.813,5.467L6.804,5.479L6.795,5.491L6.787,5.504L6.779,5.516L6.771,5.529L6.763,5.541L6.755,5.554L6.747,5.567L6.74,5.58L6.732,5.593L6.725,5.606L6.718,5.619L6.711,5.632L6.704,5.645L6.698,5.659L6.691,5.672L6.685,5.686L6.679,5.7L6.673,5.713L6.667,5.727L6.662,5.741L6.656,5.755L6.651,5.769L6.646,5.784L6.641,5.798L6.636,5.812L6.632,5.827L6.627,5.841L6.623,5.856L6.619,5.87L6.615,5.885L6.611,5.9L6.608,5.915L6.604,5.93L6.601,5.945L6.598,5.96L6.595,5.975L6.593,5.99L6.59,6.005L6.588,6.021L6.586,6.036L6.584,6.052L6.582,6.067L6.581,6.083L6.58,6.099L6.579,6.114L6.578,6.13L6.577,6.146L6.576,6.162L6.576,6.178L6.576,6.194L6.576,6.21L6.576,6.226L6.577,6.242L6.578,6.258L6.579,6.274L6.58,6.29L6.581,6.305L6.582,6.321L6.584,6.337L6.586,6.352L6.588,6.367L6.59,6.383L6.593,6.398L6.595,6.413L6.598,6.428L6.601,6.444L6.604,6.459L6.608,6.473L6.611,6.488L6.615,6.503L6.619,6.518L6.623,6.532L6.627,6.547L6.632,6.562L6.636,6.576L6.641,6.59L6.646,6.605L6.651,6.619L6.656,6.633L6.662,6.647L6.667,6.661L6.673,6.675L6.679,6.689L6.685,6.702L6.691,6.716L6.698,6.729L6.704,6.743L6.711,6.756L6.718,6.769L6.725,6.783L6.732,6.796L6.74,6.809L6.747,6.822L6.755,6.834L6.763,6.847L6.771,6.86L6.779,6.872L6.787,6.885L6.795,6.897L6.804,6.909L6.813,6.921L6.821,6.933L6.83,6.945L6.84,6.957L6.849,6.968L6.858,6.98L6.868,6.991L6.878,7.003L6.887,7.014L6.897,7.025L6.907,7.036L6.918,7.047L6.928,7.057L6.938,7.068L6.949,7.078L6.96,7.089L6.97,7.099L6.981,7.109L6.993,7.119L7.004,7.129L7.015,7.139L7.026,7.148L7.038,7.158L7.05,7.167L7.061,7.176L7.073,7.185L7.085,7.194L7.097,7.202L7.11,7.211L7.122,7.219L7.134,7.228L7.147,7.236L7.159,7.244L7.172,7.252L7.185,7.259L7.198,7.267L7.211,7.274L7.224,7.281L7.237,7.288L7.25,7.295L7.264,7.302L7.277,7.309L7.291,7.315L7.304,7.321L7.318,7.327L7.332,7.333L7.346,7.339L7.359,7.345L7.373,7.35L7.388,7.355L7.402,7.361L7.416,7.366L7.43,7.37L7.445,7.375L7.459,7.379L7.474,7.384L7.489,7.388L7.503,7.391L7.518,7.395L7.533,7.399L7.548,7.402L7.563,7.405L7.578,7.408L7.593,7.411L7.608,7.414L7.624,7.416L7.639,7.418L7.654,7.42L7.67,7.422L7.685,7.424L7.701,7.425L7.717,7.427L7.732,7.428L7.748,7.429L7.764,7.429L7.78,7.43L7.796,7.43L7.812,7.43L7.828,7.43L7.844,7.43L7.86,7.429L7.876,7.429L7.892,7.428L7.908,7.427L7.924,7.425L7.939,7.424L7.955,7.422L7.97,7.42L7.986,7.418L8.001,7.416L8.016,7.414L8.031,7.411L8.047,7.408L8.062,7.405L8.077,7.402L8.092,7.399L8.107,7.395L8.121,7.391L8.136,7.388L8.151,7.384L8.165,7.379L8.18,7.375L8.194,7.37L8.209,7.366L8.223,7.361L8.237,7.355L8.251,7.35L8.265,7.345L8.279,7.339L8.293,7.333L8.307,7.327L8.32,7.321L8.334,7.315L8.348,7.309L8.361,7.302L8.374,7.295L8.388,7.288L8.401,7.281L8.414,7.274L8.427,7.267L8.44,7.259L8.453,7.252L8.465,7.244L8.478,7.236L8.49,7.228L8.503,7.219L8.515,7.211L8.527,7.202L8.539,7.194L8.551,7.185L8.563,7.176L8.575,7.167L8.587,7.158L8.598,7.148L8.61,7.139L8.621,7.129L8.632,7.119L8.643,7.109L8.654,7.099L8.665,7.089L8.676,7.078L8.686,7.068L8.697,7.057L8.707,7.047L8.717,7.036L8.727,7.025L8.737,7.014L8.747,7.003L8.757,6.991L8.766,6.98L8.776,6.968L8.785,6.957L8.794,6.945L8.803,6.933L8.812,6.921L8.821,6.909L8.829,6.897L8.838,6.885L8.846,6.872L8.854,6.86L8.862,6.847L8.87,6.834L8.877,6.822L8.885,6.809L8.892,6.796L8.9,6.783L8.907,6.769L8.914,6.756L8.92,6.743L8.927,6.729L8.933,6.716L8.94,6.702L8.946,6.689L8.952,6.675L8.957,6.661L8.963,6.647L8.968,6.633L8.974,6.619L8.979,6.605L8.984,6.59L8.988,6.576L8.993,6.562L8.997,6.547L9.002,6.532L9.006,6.518L9.01,6.503L9.013,6.488L9.017,6.473L9.02,6.459L9.023,6.444L9.026,6.428L9.029,6.413L9.032,6.398L9.034,6.383L9.037,6.367L9.039,6.352L9.04,6.337L9.042,6.321L9.044,6.305L9.045,6.29L9.046,6.274L9.047,6.258L9.048,6.242L9.048,6.226L9.048,6.21L9.049,6.194L9.048,6.178L9.048,6.162L9.048,6.146L9.047,6.13L9.046,6.114L9.045,6.099L9.044,6.083L9.042,6.067L9.04,6.052L9.039,6.036L9.037,6.021L9.034,6.005L9.032,5.99L9.029,5.975L9.026,5.96L9.023,5.945L9.02,5.93L9.017,5.915L9.013,5.9L9.01,5.885L9.006,5.87L9.002,5.856L8.997,5.841L8.993,5.827L8.988,5.812L8.984,5.798L8.979,5.784L8.974,5.769L8.968,5.755L8.963,5.741L8.957,5.727L8.952,5.713L8.946,5.7L8.94,5.686L8.933,5.672L8.927,5.659L8.92,5.645L8.914,5.632L8.907,5.619L8.9,5.606L8.892,5.593L8.885,5.58L8.877,5.567L8.87,5.554L8.862,5.541L8.854,5.529L8.846,5.516L8.838,5.504L8.829,5.491L8.821,5.479L8.812,5.467L8.803,5.455L8.794,5.443L8.785,5.431L8.776,5.42L8.766,5.408L8.757,5.397L8.747,5.386L8.737,5.374L8.727,5.363L8.717,5.352L8.707,5.341L8.697,5.331L8.686,5.32L8.676,5.31L8.665,5.299L8.654,5.289L8.643,5.279L8.632,5.269L8.621,5.259L8.61,5.25L8.598,5.24L8.587,5.231L8.575,5.221L8.563,5.212L8.551,5.203L8.539,5.194L8.527,5.186L8.515,5.177L8.503,5.169L8.49,5.161L8.478,5.152L8.465,5.144L8.453,5.137L8.44,5.129L8.427,5.121L8.414,5.114L8.401,5.107L8.388,5.1L8.374,5.093L8.361,5.086L8.348,5.08L8.334,5.073L8.32,5.067L8.307,5.061L8.293,5.055L8.279,5.049L8.265,5.043L8.251,5.038L8.237,5.033L8.223,5.028L8.209,5.023L8.194,5.018L8.18,5.013L8.165,5.009L8.151,5.005L8.136,5.001L8.121,4.997L8.107,4.993L8.092,4.99L8.077,4.986L8.062,4.983L8.047,4.98L8.031,4.977L8.016,4.975L8.001,4.972L7.986,4.97L7.97,4.968L7.955,4.966L7.939,4.964L7.924,4.963L7.908,4.961L7.892,4.96L7.876,4.959L7.86,4.959L7.844,4.958L7.828,4.958L7.812,4.958L7.796,4.958Z" style="fill:rgb(44,41,45);"/>
        </g>
        <g transform="matrix(3.63997,0,0,3.63997,9.13344,-14.0568)">
            <circle cx="7.812" cy="6.194" r="1.786" style="fill:rgb(169,220,118);"/>
            <path d="M7.835,4.409L7.858,4.409L7.881,4.41L7.904,4.411L7.927,4.412L7.95,4.414L7.972,4.415L7.995,4.418L8.017,4.42L8.04,4.423L8.062,4.426L8.084,4.429L8.106,4.433L8.128,4.436L8.15,4.44L8.172,4.445L8.194,4.449L8.215,4.454L8.237,4.459L8.258,4.465L8.28,4.47L8.301,4.476L8.322,4.482L8.343,4.489L8.364,4.495L8.385,4.502L8.405,4.509L8.426,4.517L8.446,4.524L8.467,4.532L8.487,4.54L8.507,4.549L8.527,4.557L8.547,4.566L8.567,4.575L8.586,4.585L8.606,4.594L8.625,4.604L8.644,4.614L8.663,4.624L8.682,4.634L8.701,4.645L8.719,4.656L8.738,4.667L8.756,4.678L8.774,4.69L8.793,4.702L8.81,4.714L8.828,4.726L8.846,4.738L8.863,4.751L8.88,4.763L8.898,4.776L8.914,4.789L8.931,4.803L8.948,4.816L8.964,4.83L8.981,4.844L8.997,4.858L9.013,4.873L9.028,4.887L9.044,4.902L9.059,4.917L9.075,4.932L9.09,4.947L9.105,4.962L9.119,4.978L9.134,4.994L9.148,5.01L9.162,5.026L9.176,5.042L9.19,5.058L9.204,5.075L9.217,5.092L9.23,5.109L9.243,5.126L9.256,5.143L9.268,5.161L9.281,5.178L9.293,5.196L9.305,5.214L9.317,5.232L9.328,5.25L9.339,5.268L9.35,5.287L9.361,5.306L9.372,5.324L9.382,5.343L9.393,5.362L9.403,5.381L9.412,5.401L9.422,5.42L9.431,5.44L9.44,5.46L9.449,5.479L9.458,5.499L9.466,5.519L9.474,5.54L9.482,5.56L9.49,5.58L9.497,5.601L9.504,5.622L9.511,5.642L9.518,5.663L9.524,5.684L9.53,5.705L9.536,5.727L9.542,5.748L9.547,5.769L9.552,5.791L9.557,5.813L9.562,5.834L9.566,5.856L9.57,5.878L9.574,5.9L9.577,5.922L9.581,5.945L9.584,5.967L9.586,5.989L9.589,6.012L9.591,6.034L9.593,6.057L9.594,6.08L9.596,6.102L9.597,6.125L9.597,6.148L9.598,6.171L9.598,6.194L9.598,6.217L9.597,6.24L9.597,6.263L9.596,6.286L9.594,6.309L9.593,6.331L9.591,6.354L9.589,6.377L9.586,6.399L9.584,6.421L9.581,6.444L9.577,6.466L9.574,6.488L9.57,6.51L9.566,6.532L9.562,6.554L9.557,6.576L9.552,6.597L9.547,6.619L9.542,6.64L9.536,6.662L9.53,6.683L9.524,6.704L9.518,6.725L9.511,6.746L9.504,6.767L9.497,6.787L9.49,6.808L9.482,6.828L9.474,6.849L9.466,6.869L9.458,6.889L9.449,6.909L9.44,6.929L9.431,6.948L9.422,6.968L9.412,6.987L9.403,7.007L9.393,7.026L9.382,7.045L9.372,7.064L9.361,7.083L9.35,7.101L9.339,7.12L9.328,7.138L9.317,7.156L9.305,7.174L9.293,7.192L9.281,7.21L9.268,7.228L9.256,7.245L9.243,7.262L9.23,7.279L9.217,7.296L9.204,7.313L9.19,7.33L9.176,7.346L9.162,7.362L9.148,7.379L9.134,7.395L9.119,7.41L9.105,7.426L9.09,7.441L9.075,7.457L9.059,7.472L9.044,7.487L9.028,7.501L9.013,7.516L8.997,7.53L8.981,7.544L8.964,7.558L8.948,7.572L8.931,7.585L8.914,7.599L8.898,7.612L8.88,7.625L8.863,7.638L8.846,7.65L8.828,7.663L8.81,7.675L8.793,7.687L8.774,7.698L8.756,7.71L8.738,7.721L8.719,7.732L8.701,7.743L8.682,7.754L8.663,7.764L8.644,7.774L8.625,7.784L8.606,7.794L8.586,7.804L8.567,7.813L8.547,7.822L8.527,7.831L8.507,7.839L8.487,7.848L8.467,7.856L8.446,7.864L8.426,7.871L8.405,7.879L8.385,7.886L8.364,7.893L8.343,7.9L8.322,7.906L8.301,7.912L8.28,7.918L8.258,7.924L8.237,7.929L8.215,7.934L8.194,7.939L8.172,7.944L8.15,7.948L8.128,7.952L8.106,7.956L8.084,7.959L8.062,7.963L8.04,7.965L8.017,7.968L7.995,7.971L7.972,7.973L7.95,7.975L7.927,7.976L7.904,7.978L7.881,7.979L7.858,7.979L7.835,7.98L7.812,7.98L7.789,7.98L7.766,7.979L7.743,7.979L7.72,7.978L7.698,7.976L7.675,7.975L7.652,7.973L7.63,7.971L7.607,7.968L7.585,7.965L7.563,7.963L7.54,7.959L7.518,7.956L7.496,7.952L7.474,7.948L7.453,7.944L7.431,7.939L7.409,7.934L7.388,7.929L7.366,7.924L7.345,7.918L7.324,7.912L7.303,7.906L7.282,7.9L7.261,7.893L7.24,7.886L7.219,7.879L7.199,7.871L7.178,7.864L7.158,7.856L7.138,7.848L7.117,7.839L7.098,7.831L7.078,7.822L7.058,7.813L7.038,7.804L7.019,7.794L7,7.784L6.98,7.774L6.961,7.764L6.942,7.754L6.924,7.743L6.905,7.732L6.887,7.721L6.868,7.71L6.85,7.698L6.832,7.687L6.814,7.675L6.796,7.663L6.779,7.65L6.761,7.638L6.744,7.625L6.727,7.612L6.71,7.599L6.693,7.585L6.677,7.572L6.66,7.558L6.644,7.544L6.628,7.53L6.612,7.516L6.596,7.501L6.58,7.487L6.565,7.472L6.55,7.457L6.535,7.441L6.52,7.426L6.505,7.41L6.491,7.395L6.476,7.379L6.462,7.362L6.448,7.346L6.435,7.33L6.421,7.313L6.408,7.296L6.394,7.279L6.382,7.262L6.369,7.245L6.356,7.228L6.344,7.21L6.332,7.192L6.32,7.174L6.308,7.156L6.297,7.138L6.285,7.12L6.274,7.101L6.263,7.083L6.253,7.064L6.242,7.045L6.232,7.026L6.222,7.007L6.212,6.987L6.203,6.968L6.193,6.948L6.184,6.929L6.176,6.909L6.167,6.889L6.159,6.869L6.151,6.849L6.143,6.828L6.135,6.808L6.128,6.787L6.12,6.767L6.114,6.746L6.107,6.725L6.1,6.704L6.094,6.683L6.088,6.662L6.083,6.64L6.077,6.619L6.072,6.597L6.067,6.576L6.063,6.554L6.059,6.532L6.054,6.51L6.051,6.488L6.047,6.466L6.044,6.444L6.041,6.421L6.038,6.399L6.036,6.377L6.034,6.354L6.032,6.331L6.03,6.309L6.029,6.286L6.028,6.263L6.027,6.24L6.027,6.217L6.027,6.194L6.027,6.171L6.027,6.148L6.028,6.125L6.029,6.102L6.03,6.08L6.032,6.057L6.034,6.034L6.036,6.012L6.038,5.989L6.041,5.967L6.044,5.945L6.047,5.922L6.051,5.9L6.054,5.878L6.059,5.856L6.063,5.834L6.067,5.813L6.072,5.791L6.077,5.769L6.083,5.748L6.088,5.727L6.094,5.705L6.1,5.684L6.107,5.663L6.114,5.642L6.12,5.622L6.128,5.601L6.135,5.58L6.143,5.56L6.151,5.54L6.159,5.519L6.167,5.499L6.176,5.479L6.184,5.46L6.193,5.44L6.203,5.42L6.212,5.401L6.222,5.381L6.232,5.362L6.242,5.343L6.253,5.324L6.263,5.306L6.274,5.287L6.285,5.268L6.297,5.25L6.308,5.232L6.32,5.214L6.332,5.196L6.344,5.178L6.356,5.161L6.369,5.143L6.382,5.126L6.394,5.109L6.408,5.092L6.421,5.075L6.435,5.058L6.448,5.042L6.462,5.026L6.476,5.01L6.491,4.994L6.505,4.978L6.52,4.962L6.535,4.947L6.55,4.932L6.565,4.917L6.58,4.902L6.596,4.887L6.612,4.873L6.628,4.858L6.644,4.844L6.66,4.83L6.677,4.816L6.693,4.803L6.71,4.789L6.727,4.776L6.744,4.763L6.761,4.751L6.779,4.738L6.796,4.726L6.814,4.714L6.832,4.702L6.85,4.69L6.868,4.678L6.887,4.667L6.905,4.656L6.924,4.645L6.942,4.634L6.961,4.624L6.98,4.614L7,4.604L7.019,4.594L7.038,4.585L7.058,4.575L7.078,4.566L7.098,4.557L7.117,4.549L7.138,4.54L7.158,4.532L7.178,4.524L7.199,4.517L7.219,4.509L7.24,4.502L7.261,4.495L7.282,4.489L7.303,4.482L7.324,4.476L7.345,4.47L7.366,4.465L7.388,4.459L7.409,4.454L7.431,4.449L7.453,4.445L7.474,4.44L7.496,4.436L7.518,4.433L7.54,4.429L7.563,4.426L7.585,4.423L7.607,4.42L7.63,4.418L7.652,4.415L7.675,4.414L7.698,4.412L7.72,4.411L7.743,4.41L7.766,4.409L7.789,4.409L7.812,4.408L7.835,4.409ZM7.796,4.958L7.78,4.958L7.764,4.959L7.748,4.959L7.732,4.96L7.717,4.961L7.701,4.963L7.685,4.964L7.67,4.966L7.654,4.968L7.639,4.97L7.624,4.972L7.608,4.975L7.593,4.977L7.578,4.98L7.563,4.983L7.548,4.986L7.533,4.99L7.518,4.993L7.503,4.997L7.489,5.001L7.474,5.005L7.459,5.009L7.445,5.013L7.43,5.018L7.416,5.023L7.402,5.028L7.388,5.033L7.374,5.038L7.359,5.043L7.346,5.049L7.332,5.055L7.318,5.061L7.304,5.067L7.291,5.073L7.277,5.08L7.264,5.086L7.25,5.093L7.237,5.1L7.224,5.107L7.211,5.114L7.198,5.121L7.185,5.129L7.172,5.137L7.159,5.144L7.147,5.152L7.134,5.161L7.122,5.169L7.11,5.177L7.097,5.186L7.085,5.194L7.073,5.203L7.061,5.212L7.05,5.221L7.038,5.231L7.026,5.24L7.015,5.25L7.004,5.259L6.993,5.269L6.981,5.279L6.97,5.289L6.96,5.299L6.949,5.31L6.938,5.32L6.928,5.331L6.918,5.341L6.907,5.352L6.897,5.363L6.887,5.374L6.878,5.386L6.868,5.397L6.858,5.408L6.849,5.42L6.84,5.431L6.83,5.443L6.821,5.455L6.813,5.467L6.804,5.479L6.795,5.491L6.787,5.504L6.779,5.516L6.771,5.529L6.763,5.541L6.755,5.554L6.747,5.567L6.74,5.58L6.732,5.593L6.725,5.606L6.718,5.619L6.711,5.632L6.704,5.645L6.698,5.659L6.691,5.672L6.685,5.686L6.679,5.7L6.673,5.713L6.667,5.727L6.662,5.741L6.656,5.755L6.651,5.769L6.646,5.784L6.641,5.798L6.636,5.812L6.632,5.827L6.627,5.841L6.623,5.856L6.619,5.87L6.615,5.885L6.611,5.9L6.608,5.915L6.604,5.93L6.601,5.945L6.598,5.96L6.595,5.975L6.593,5.99L6.59,6.005L6.588,6.021L6.586,6.036L6.584,6.052L6.582,6.067L6.581,6.083L6.58,6.099L6.579,6.114L6.578,6.13L6.577,6.146L6.576,6.162L6.576,6.178L6.576,6.194L6.576,6.21L6.576,6.226L6.577,6.242L6.578,6.258L6.579,6.274L6.58,6.29L6.581,6.305L6.582,6.321L6.584,6.337L6.586,6.352L6.588,6.367L6.59,6.383L6.593,6.398L6.595,6.413L6.598,6.428L6.601,6.444L6.604,6.459L6.608,6.473L6.611,6.488L6.615,6.503L6.619,6.518L6.623,6.533L6.627,6.547L6.632,6.562L6.636,6.576L6.641,6.59L6.646,6.605L6.651,6.619L6.656,6.633L6.662,6.647L6.667,6.661L6.673,6.675L6.679,6.689L6.685,6.702L6.691,6.716L6.698,6.729L6.704,6.743L6.711,6.756L6.718,6.769L6.725,6.783L6.732,6.796L6.74,6.809L6.747,6.822L6.755,6.834L6.763,6.847L6.771,6.86L6.779,6.872L6.787,6.885L6.795,6.897L6.804,6.909L6.813,6.921L6.821,6.933L6.83,6.945L6.84,6.957L6.849,6.968L6.858,6.98L6.868,6.991L6.878,7.003L6.887,7.014L6.897,7.025L6.907,7.036L6.918,7.047L6.928,7.057L6.938,7.068L6.949,7.078L6.96,7.089L6.97,7.099L6.981,7.109L6.993,7.119L7.004,7.129L7.015,7.139L7.026,7.148L7.038,7.158L7.05,7.167L7.061,7.176L7.073,7.185L7.085,7.194L7.097,7.202L7.11,7.211L7.122,7.219L7.134,7.228L7.147,7.236L7.159,7.244L7.172,7.252L7.185,7.259L7.198,7.267L7.211,7.274L7.224,7.281L7.237,7.288L7.25,7.295L7.264,7.302L7.277,7.309L7.291,7.315L7.304,7.321L7.318,7.327L7.332,7.333L7.346,7.339L7.359,7.345L7.374,7.35L7.388,7.355L7.402,7.361L7.416,7.366L7.43,7.37L7.445,7.375L7.459,7.379L7.474,7.384L7.489,7.388L7.503,7.391L7.518,7.395L7.533,7.399L7.548,7.402L7.563,7.405L7.578,7.408L7.593,7.411L7.608,7.414L7.624,7.416L7.639,7.418L7.654,7.42L7.67,7.422L7.685,7.424L7.701,7.425L7.717,7.427L7.732,7.428L7.748,7.429L7.764,7.429L7.78,7.43L7.796,7.43L7.812,7.43L7.828,7.43L7.844,7.43L7.86,7.429L7.876,7.429L7.892,7.428L7.908,7.427L7.924,7.425L7.939,7.424L7.955,7.422L7.97,7.42L7.986,7.418L8.001,7.416L8.016,7.414L8.031,7.411L8.047,7.408L8.062,7.405L8.077,7.402L8.092,7.399L8.107,7.395L8.121,7.391L8.136,7.388L8.151,7.384L8.165,7.379L8.18,7.375L8.194,7.37L8.209,7.366L8.223,7.361L8.237,7.355L8.251,7.35L8.265,7.345L8.279,7.339L8.293,7.333L8.307,7.327L8.32,7.321L8.334,7.315L8.348,7.309L8.361,7.302L8.374,7.295L8.388,7.288L8.401,7.281L8.414,7.274L8.427,7.267L8.44,7.259L8.453,7.252L8.465,7.244L8.478,7.236L8.49,7.228L8.503,7.219L8.515,7.211L8.527,7.202L8.539,7.194L8.551,7.185L8.563,7.176L8.575,7.167L8.587,7.158L8.598,7.148L8.61,7.139L8.621,7.129L8.632,7.119L8.643,7.109L8.654,7.099L8.665,7.089L8.676,7.078L8.686,7.068L8.697,7.057L8.707,7.047L8.717,7.036L8.727,7.025L8.737,7.014L8.747,7.003L8.757,6.991L8.766,6.98L8.776,6.968L8.785,6.957L8.794,6.945L8.803,6.933L8.812,6.921L8.821,6.909L8.829,6.897L8.838,6.885L8.846,6.872L8.854,6.86L8.862,6.847L8.87,6.834L8.877,6.822L8.885,6.809L8.892,6.796L8.9,6.783L8.907,6.769L8.914,6.756L8.92,6.743L8.927,6.729L8.933,6.716L8.94,6.702L8.946,6.689L8.952,6.675L8.957,6.661L8.963,6.647L8.968,6.633L8.974,6.619L8.979,6.605L8.984,6.59L8.988,6.576L8.993,6.562L8.997,6.547L9.002,6.532L9.006,6.518L9.01,6.503L9.013,6.488L9.017,6.473L9.02,6.459L9.023,6.444L9.026,6.428L9.029,6.413L9.032,6.398L9.034,6.383L9.037,6.367L9.039,6.352L9.04,6.337L9.042,6.321L9.044,6.305L9.045,6.29L9.046,6.274L9.047,6.258L9.048,6.242L9.048,6.226L9.048,6.21L9.049,6.194L9.048,6.178L9.048,6.162L9.048,6.146L9.047,6.13L9.046,6.114L9.045,6.099L9.044,6.083L9.042,6.067L9.04,6.052L9.039,6.036L9.037,6.021L9.034,6.005L9.032,5.99L9.029,5.975L9.026,5.96L9.023,5.945L9.02,5.93L9.017,5.915L9.013,5.9L9.01,5.885L9.006,5.87L9.002,5.856L8.997,5.841L8.993,5.827L8.988,5.812L8.984,5.798L8.979,5.784L8.974,5.769L8.968,5.755L8.963,5.741L8.957,5.727L8.952,5.713L8.946,5.7L8.94,5.686L8.933,5.672L8.927,5.659L8.92,5.645L8.914,5.632L8.907,5.619L8.9,5.606L8.892,5.593L8.885,5.58L8.877,5.567L8.87,5.554L8.862,5.541L8.854,5.529L8.846,5.516L8.838,5.504L8.829,5.491L8.821,5.479L8.812,5.467L8.803,5.455L8.794,5.443L8.785,5.431L8.776,5.42L8.766,5.408L8.757,5.397L8.747,5.386L8.737,5.374L8.727,5.363L8.717,5.352L8.707,5.341L8.697,5.331L8.686,5.32L8.676,5.31L8.665,5.299L8.654,5.289L8.643,5.279L8.632,5.269L8.621,5.259L8.61,5.25L8.598,5.24L8.587,5.231L8.575,5.221L8.563,5.212L8.551,5.203L8.539,5.194L8.527,5.186L8.515,5.177L8.503,5.169L8.49,5.161L8.478,5.152L8.465,5.144L8.453,5.137L8.44,5.129L8.427,5.121L8.414,5.114L8.401,5.107L8.388,5.1L8.374,5.093L8.361,5.086L8.348,5.08L8.334,5.073L8.32,5.067L8.307,5.061L8.293,5.055L8.279,5.049L8.265,5.043L8.251,5.038L8.237,5.033L8.223,5.028L8.209,5.023L8.194,5.018L8.18,5.013L8.165,5.009L8.151,5.005L8.136,5.001L8.121,4.997L8.107,4.993L8.092,4.99L8.077,4.986L8.062,4.983L8.047,4.98L8.031,4.977L8.016,4.975L8.001,4.972L7.986,4.97L7.97,4.968L7.955,4.966L7.939,4.964L7.924,4.963L7.908,4.961L7.892,4.96L7.876,4.959L7.86,4.959L7.844,4.958L7.828,4.958L7.812,4.958L7.796,4.958Z" style="fill:rgb(44,41,45);"/>
        </g>
        <g transform="matrix(3.62853,0,0,3.62853,-15.9375,15.0348)">
            <circle cx="7.812" cy="6.194" r="1.786" style="fill:rgb(255,216,102);"/>
            <path d="M7.835,4.409L7.858,4.409L7.881,4.41L7.904,4.411L7.927,4.412L7.95,4.414L7.972,4.415L7.995,4.418L8.017,4.42L8.04,4.423L8.062,4.426L8.084,4.429L8.106,4.433L8.128,4.436L8.15,4.44L8.172,4.445L8.194,4.449L8.215,4.454L8.237,4.459L8.258,4.465L8.28,4.47L8.301,4.476L8.322,4.482L8.343,4.489L8.364,4.495L8.385,4.502L8.405,4.509L8.426,4.517L8.446,4.524L8.467,4.532L8.487,4.54L8.507,4.549L8.527,4.557L8.547,4.566L8.567,4.575L8.586,4.585L8.606,4.594L8.625,4.604L8.644,4.614L8.663,4.624L8.682,4.634L8.701,4.645L8.719,4.656L8.738,4.667L8.756,4.678L8.774,4.69L8.793,4.702L8.81,4.714L8.828,4.726L8.846,4.738L8.863,4.751L8.88,4.763L8.898,4.776L8.914,4.789L8.931,4.803L8.948,4.816L8.964,4.83L8.981,4.844L8.997,4.858L9.013,4.873L9.028,4.887L9.044,4.902L9.059,4.917L9.075,4.932L9.09,4.947L9.105,4.962L9.119,4.978L9.134,4.994L9.148,5.01L9.162,5.026L9.176,5.042L9.19,5.058L9.204,5.075L9.217,5.092L9.23,5.109L9.243,5.126L9.256,5.143L9.268,5.161L9.281,5.178L9.293,5.196L9.305,5.214L9.317,5.232L9.328,5.25L9.339,5.268L9.35,5.287L9.361,5.306L9.372,5.324L9.382,5.343L9.393,5.362L9.403,5.381L9.412,5.401L9.422,5.42L9.431,5.44L9.44,5.46L9.449,5.479L9.458,5.499L9.466,5.519L9.474,5.54L9.482,5.56L9.49,5.58L9.497,5.601L9.504,5.622L9.511,5.642L9.518,5.663L9.524,5.684L9.53,5.705L9.536,5.727L9.542,5.748L9.547,5.769L9.552,5.791L9.557,5.813L9.562,5.834L9.566,5.856L9.57,5.878L9.574,5.9L9.577,5.922L9.581,5.945L9.584,5.967L9.586,5.989L9.589,6.012L9.591,6.034L9.593,6.057L9.594,6.08L9.596,6.102L9.597,6.125L9.597,6.148L9.598,6.171L9.598,6.194L9.598,6.217L9.597,6.24L9.597,6.263L9.596,6.286L9.594,6.309L9.593,6.331L9.591,6.354L9.589,6.377L9.586,6.399L9.584,6.421L9.581,6.444L9.577,6.466L9.574,6.488L9.57,6.51L9.566,6.532L9.562,6.554L9.557,6.576L9.552,6.597L9.547,6.619L9.542,6.64L9.536,6.662L9.53,6.683L9.524,6.704L9.518,6.725L9.511,6.746L9.504,6.767L9.497,6.787L9.49,6.808L9.482,6.828L9.474,6.849L9.466,6.869L9.458,6.889L9.449,6.909L9.44,6.929L9.431,6.948L9.422,6.968L9.412,6.987L9.403,7.007L9.393,7.026L9.382,7.045L9.372,7.064L9.361,7.083L9.35,7.101L9.339,7.12L9.328,7.138L9.317,7.156L9.305,7.174L9.293,7.192L9.281,7.21L9.268,7.228L9.256,7.245L9.243,7.262L9.23,7.279L9.217,7.296L9.204,7.313L9.19,7.33L9.176,7.346L9.162,7.362L9.148,7.379L9.134,7.395L9.119,7.41L9.105,7.426L9.09,7.441L9.075,7.457L9.059,7.472L9.044,7.487L9.028,7.501L9.013,7.516L8.997,7.53L8.981,7.544L8.964,7.558L8.948,7.572L8.931,7.585L8.914,7.599L8.898,7.612L8.88,7.625L8.863,7.638L8.846,7.65L8.828,7.663L8.81,7.675L8.793,7.687L8.774,7.698L8.756,7.71L8.738,7.721L8.719,7.732L8.701,7.743L8.682,7.754L8.663,7.764L8.644,7.774L8.625,7.784L8.606,7.794L8.586,7.804L8.567,7.813L8.547,7.822L8.527,7.831L8.507,7.839L8.487,7.848L8.467,7.856L8.446,7.864L8.426,7.871L8.405,7.879L8.385,7.886L8.364,7.893L8.343,7.9L8.322,7.906L8.301,7.912L8.28,7.918L8.258,7.924L8.237,7.929L8.215,7.934L8.194,7.939L8.172,7.944L8.15,7.948L8.128,7.952L8.106,7.956L8.084,7.959L8.062,7.963L8.04,7.965L8.017,7.968L7.995,7.971L7.972,7.973L7.95,7.975L7.927,7.976L7.904,7.978L7.881,7.979L7.858,7.979L7.835,7.98L7.812,7.98L7.789,7.98L7.766,7.979L7.743,7.979L7.72,7.978L7.698,7.976L7.675,7.975L7.652,7.973L7.63,7.971L7.607,7.968L7.585,7.965L7.563,7.963L7.54,7.959L7.518,7.956L7.496,7.952L7.474,7.948L7.453,7.944L7.431,7.939L7.409,7.934L7.388,7.929L7.366,7.924L7.345,7.918L7.324,7.912L7.303,7.906L7.282,7.9L7.261,7.893L7.24,7.886L7.219,7.879L7.199,7.871L7.178,7.864L7.158,7.856L7.138,7.848L7.117,7.839L7.098,7.831L7.078,7.822L7.058,7.813L7.038,7.804L7.019,7.794L7,7.784L6.98,7.774L6.961,7.764L6.942,7.754L6.924,7.743L6.905,7.732L6.887,7.721L6.868,7.71L6.85,7.698L6.832,7.687L6.814,7.675L6.796,7.663L6.779,7.65L6.761,7.638L6.744,7.625L6.727,7.612L6.71,7.599L6.693,7.585L6.677,7.572L6.66,7.558L6.644,7.544L6.628,7.53L6.612,7.516L6.596,7.501L6.58,7.487L6.565,7.472L6.55,7.457L6.535,7.441L6.52,7.426L6.505,7.41L6.491,7.395L6.476,7.379L6.462,7.362L6.448,7.346L6.435,7.33L6.421,7.313L6.408,7.296L6.394,7.279L6.382,7.262L6.369,7.245L6.356,7.228L6.344,7.21L6.332,7.192L6.32,7.174L6.308,7.156L6.297,7.138L6.285,7.12L6.274,7.101L6.263,7.083L6.253,7.064L6.242,7.045L6.232,7.026L6.222,7.007L6.212,6.987L6.203,6.968L6.193,6.948L6.184,6.929L6.176,6.909L6.167,6.889L6.159,6.869L6.151,6.849L6.143,6.828L6.135,6.808L6.128,6.787L6.12,6.767L6.114,6.746L6.107,6.725L6.1,6.704L6.094,6.683L6.088,6.662L6.083,6.64L6.077,6.619L6.072,6.597L6.067,6.576L6.063,6.554L6.059,6.532L6.054,6.51L6.051,6.488L6.047,6.466L6.044,6.444L6.041,6.421L6.038,6.399L6.036,6.377L6.034,6.354L6.032,6.331L6.03,6.309L6.029,6.286L6.028,6.263L6.027,6.24L6.027,6.217L6.027,6.194L6.027,6.171L6.027,6.148L6.028,6.125L6.029,6.102L6.03,6.08L6.032,6.057L6.034,6.034L6.036,6.012L6.038,5.989L6.041,5.967L6.044,5.945L6.047,5.922L6.051,5.9L6.054,5.878L6.059,5.856L6.063,5.834L6.067,5.813L6.072,5.791L6.077,5.769L6.083,5.748L6.088,5.727L6.094,5.705L6.1,5.684L6.107,5.663L6.114,5.642L6.12,5.622L6.128,5.601L6.135,5.58L6.143,5.56L6.151,5.54L6.159,5.519L6.167,5.499L6.176,5.479L6.184,5.46L6.193,5.44L6.203,5.42L6.212,5.401L6.222,5.381L6.232,5.362L6.242,5.343L6.253,5.324L6.263,5.306L6.274,5.287L6.285,5.268L6.297,5.25L6.308,5.232L6.32,5.214L6.332,5.196L6.344,5.178L6.356,5.161L6.369,5.143L6.382,5.126L6.394,5.109L6.408,5.092L6.421,5.075L6.435,5.058L6.448,5.042L6.462,5.026L6.476,5.01L6.491,4.994L6.505,4.978L6.52,4.962L6.535,4.947L6.55,4.932L6.565,4.917L6.58,4.902L6.596,4.887L6.612,4.873L6.628,4.858L6.644,4.844L6.66,4.83L6.677,4.816L6.693,4.803L6.71,4.789L6.727,4.776L6.744,4.763L6.761,4.751L6.779,4.738L6.796,4.726L6.814,4.714L6.832,4.702L6.85,4.69L6.868,4.678L6.887,4.667L6.905,4.656L6.924,4.645L6.942,4.634L6.961,4.624L6.98,4.614L7,4.604L7.019,4.594L7.038,4.585L7.058,4.575L7.078,4.566L7.098,4.557L7.117,4.549L7.138,4.54L7.158,4.532L7.178,4.524L7.199,4.517L7.219,4.509L7.24,4.502L7.261,4.495L7.282,4.489L7.303,4.482L7.324,4.476L7.345,4.47L7.366,4.465L7.388,4.459L7.409,4.454L7.431,4.449L7.453,4.445L7.474,4.44L7.496,4.436L7.518,4.433L7.54,4.429L7.563,4.426L7.585,4.423L7.607,4.42L7.63,4.418L7.652,4.415L7.675,4.414L7.698,4.412L7.72,4.411L7.743,4.41L7.766,4.409L7.789,4.409L7.812,4.408L7.835,4.409ZM7.796,4.96L7.78,4.96L7.764,4.96L7.748,4.961L7.733,4.962L7.717,4.963L7.701,4.964L7.686,4.966L7.67,4.968L7.655,4.97L7.639,4.972L7.624,4.974L7.609,4.976L7.593,4.979L7.578,4.982L7.563,4.985L7.548,4.988L7.533,4.991L7.518,4.995L7.504,4.998L7.489,5.002L7.474,5.006L7.46,5.011L7.445,5.015L7.431,5.02L7.417,5.024L7.402,5.029L7.388,5.034L7.374,5.04L7.36,5.045L7.346,5.051L7.332,5.056L7.319,5.062L7.305,5.068L7.291,5.075L7.278,5.081L7.264,5.088L7.251,5.094L7.238,5.101L7.225,5.108L7.212,5.116L7.199,5.123L7.186,5.13L7.173,5.138L7.16,5.146L7.148,5.154L7.135,5.162L7.123,5.17L7.111,5.179L7.098,5.187L7.086,5.196L7.074,5.205L7.062,5.214L7.051,5.223L7.039,5.232L7.028,5.241L7.016,5.251L7.005,5.261L6.994,5.27L6.983,5.28L6.972,5.29L6.961,5.301L6.95,5.311L6.94,5.321L6.929,5.332L6.919,5.343L6.909,5.354L6.899,5.364L6.889,5.375L6.879,5.387L6.869,5.398L6.86,5.409L6.85,5.421L6.841,5.433L6.832,5.444L6.823,5.456L6.814,5.468L6.805,5.48L6.797,5.492L6.788,5.505L6.78,5.517L6.772,5.529L6.764,5.542L6.756,5.555L6.749,5.568L6.741,5.58L6.734,5.593L6.727,5.606L6.719,5.62L6.713,5.633L6.706,5.646L6.699,5.66L6.693,5.673L6.687,5.687L6.681,5.7L6.675,5.714L6.669,5.728L6.663,5.742L6.658,5.756L6.653,5.77L6.647,5.784L6.643,5.798L6.638,5.813L6.633,5.827L6.629,5.842L6.625,5.856L6.62,5.871L6.617,5.886L6.613,5.9L6.609,5.915L6.606,5.93L6.603,5.945L6.6,5.96L6.597,5.975L6.594,5.99L6.592,6.006L6.59,6.021L6.588,6.036L6.586,6.052L6.584,6.067L6.583,6.083L6.581,6.099L6.58,6.114L6.579,6.13L6.579,6.146L6.578,6.162L6.578,6.178L6.578,6.194L6.578,6.21L6.578,6.226L6.579,6.242L6.579,6.258L6.58,6.274L6.581,6.29L6.583,6.305L6.584,6.321L6.586,6.336L6.588,6.352L6.59,6.367L6.592,6.383L6.594,6.398L6.597,6.413L6.6,6.428L6.603,6.443L6.606,6.458L6.609,6.473L6.613,6.488L6.617,6.503L6.62,6.517L6.625,6.532L6.629,6.547L6.633,6.561L6.638,6.575L6.643,6.59L6.647,6.604L6.653,6.618L6.658,6.632L6.663,6.646L6.669,6.66L6.675,6.674L6.681,6.688L6.687,6.702L6.693,6.715L6.699,6.729L6.706,6.742L6.713,6.755L6.719,6.769L6.727,6.782L6.734,6.795L6.741,6.808L6.749,6.821L6.756,6.833L6.764,6.846L6.772,6.859L6.78,6.871L6.788,6.884L6.797,6.896L6.805,6.908L6.814,6.92L6.823,6.932L6.832,6.944L6.841,6.956L6.85,6.967L6.86,6.979L6.869,6.99L6.879,7.002L6.889,7.013L6.899,7.024L6.909,7.035L6.919,7.046L6.929,7.056L6.94,7.067L6.95,7.077L6.961,7.088L6.972,7.098L6.983,7.108L6.994,7.118L7.005,7.128L7.016,7.137L7.028,7.147L7.039,7.156L7.051,7.165L7.062,7.175L7.074,7.184L7.086,7.192L7.098,7.201L7.111,7.21L7.123,7.218L7.135,7.226L7.148,7.234L7.16,7.242L7.173,7.25L7.186,7.258L7.199,7.265L7.212,7.273L7.225,7.28L7.238,7.287L7.251,7.294L7.264,7.301L7.278,7.307L7.291,7.314L7.305,7.32L7.319,7.326L7.332,7.332L7.346,7.338L7.36,7.343L7.374,7.349L7.388,7.354L7.402,7.359L7.417,7.364L7.431,7.369L7.445,7.373L7.46,7.378L7.474,7.382L7.489,7.386L7.504,7.39L7.518,7.394L7.533,7.397L7.548,7.4L7.563,7.404L7.578,7.407L7.593,7.409L7.609,7.412L7.624,7.414L7.639,7.417L7.655,7.419L7.67,7.421L7.686,7.422L7.701,7.424L7.717,7.425L7.733,7.426L7.748,7.427L7.764,7.428L7.78,7.428L7.796,7.429L7.812,7.429L7.828,7.429L7.844,7.428L7.86,7.428L7.876,7.427L7.892,7.426L7.908,7.425L7.923,7.424L7.939,7.422L7.955,7.421L7.97,7.419L7.985,7.417L8.001,7.414L8.016,7.412L8.031,7.409L8.046,7.407L8.061,7.404L8.076,7.4L8.091,7.397L8.106,7.394L8.121,7.39L8.136,7.386L8.15,7.382L8.165,7.378L8.179,7.373L8.194,7.369L8.208,7.364L8.222,7.359L8.236,7.354L8.25,7.349L8.264,7.343L8.278,7.338L8.292,7.332L8.306,7.326L8.32,7.32L8.333,7.314L8.347,7.307L8.36,7.301L8.374,7.294L8.387,7.287L8.4,7.28L8.413,7.273L8.426,7.265L8.439,7.258L8.452,7.25L8.464,7.242L8.477,7.234L8.489,7.226L8.502,7.218L8.514,7.21L8.526,7.201L8.538,7.192L8.55,7.184L8.562,7.175L8.574,7.165L8.586,7.156L8.597,7.147L8.608,7.137L8.62,7.128L8.631,7.118L8.642,7.108L8.653,7.098L8.664,7.088L8.674,7.077L8.685,7.067L8.695,7.056L8.706,7.046L8.716,7.035L8.726,7.024L8.736,7.013L8.746,7.002L8.755,6.99L8.765,6.979L8.774,6.967L8.784,6.956L8.793,6.944L8.802,6.932L8.811,6.92L8.819,6.908L8.828,6.896L8.836,6.884L8.844,6.871L8.853,6.859L8.861,6.846L8.868,6.833L8.876,6.821L8.884,6.808L8.891,6.795L8.898,6.782L8.905,6.769L8.912,6.755L8.919,6.742L8.925,6.729L8.932,6.715L8.938,6.702L8.944,6.688L8.95,6.674L8.956,6.66L8.961,6.646L8.967,6.632L8.972,6.618L8.977,6.604L8.982,6.59L8.987,6.575L8.991,6.561L8.996,6.547L9,6.532L9.004,6.517L9.008,6.503L9.012,6.488L9.015,6.473L9.019,6.458L9.022,6.443L9.025,6.428L9.028,6.413L9.03,6.398L9.033,6.383L9.035,6.367L9.037,6.352L9.039,6.336L9.04,6.321L9.042,6.305L9.043,6.29L9.044,6.274L9.045,6.258L9.046,6.242L9.046,6.226L9.047,6.21L9.047,6.194L9.047,6.178L9.046,6.162L9.046,6.146L9.045,6.13L9.044,6.114L9.043,6.099L9.042,6.083L9.04,6.067L9.039,6.052L9.037,6.036L9.035,6.021L9.033,6.006L9.03,5.99L9.028,5.975L9.025,5.96L9.022,5.945L9.019,5.93L9.015,5.915L9.012,5.9L9.008,5.886L9.004,5.871L9,5.856L8.996,5.842L8.991,5.827L8.987,5.813L8.982,5.798L8.977,5.784L8.972,5.77L8.967,5.756L8.961,5.742L8.956,5.728L8.95,5.714L8.944,5.7L8.938,5.687L8.932,5.673L8.925,5.66L8.919,5.646L8.912,5.633L8.905,5.62L8.898,5.606L8.891,5.593L8.884,5.58L8.876,5.568L8.868,5.555L8.861,5.542L8.853,5.529L8.844,5.517L8.836,5.505L8.828,5.492L8.819,5.48L8.811,5.468L8.802,5.456L8.793,5.444L8.784,5.433L8.774,5.421L8.765,5.409L8.755,5.398L8.746,5.387L8.736,5.375L8.726,5.364L8.716,5.353L8.706,5.343L8.695,5.332L8.685,5.321L8.674,5.311L8.664,5.301L8.653,5.29L8.642,5.28L8.631,5.27L8.62,5.261L8.608,5.251L8.597,5.241L8.585,5.232L8.574,5.223L8.562,5.214L8.55,5.205L8.538,5.196L8.526,5.187L8.514,5.179L8.502,5.17L8.489,5.162L8.477,5.154L8.464,5.146L8.452,5.138L8.439,5.13L8.426,5.123L8.413,5.116L8.4,5.108L8.387,5.101L8.374,5.094L8.36,5.088L8.347,5.081L8.333,5.075L8.32,5.068L8.306,5.062L8.292,5.056L8.278,5.051L8.264,5.045L8.25,5.04L8.236,5.034L8.222,5.029L8.208,5.024L8.194,5.02L8.179,5.015L8.165,5.011L8.15,5.006L8.136,5.002L8.121,4.998L8.106,4.995L8.091,4.991L8.076,4.988L8.061,4.985L8.046,4.982L8.031,4.979L8.016,4.976L8.001,4.974L7.985,4.972L7.97,4.97L7.955,4.968L7.939,4.966L7.923,4.964L7.908,4.963L7.892,4.962L7.876,4.961L7.86,4.96L7.844,4.96L7.828,4.96L7.812,4.96L7.796,4.96Z" style="fill:rgb(44,41,45);"/>
        </g>
        <g transform="matrix(3.62853,0,0,3.62853,9.13242,15.0348)">
            <circle cx="7.812" cy="6.194" r="1.786" style="fill:rgb(171,157,242);"/>
            <path d="M7.835,4.409L7.858,4.409L7.881,4.41L7.904,4.411L7.927,4.412L7.95,4.414L7.972,4.415L7.995,4.418L8.017,4.42L8.04,4.423L8.062,4.426L8.084,4.429L8.106,4.433L8.128,4.436L8.15,4.44L8.172,4.445L8.194,4.449L8.215,4.454L8.237,4.459L8.258,4.465L8.28,4.47L8.301,4.476L8.322,4.482L8.343,4.489L8.364,4.495L8.385,4.502L8.405,4.509L8.426,4.517L8.446,4.524L8.467,4.532L8.487,4.54L8.507,4.549L8.527,4.557L8.547,4.566L8.567,4.575L8.586,4.585L8.606,4.594L8.625,4.604L8.644,4.614L8.663,4.624L8.682,4.634L8.701,4.645L8.719,4.656L8.738,4.667L8.756,4.678L8.774,4.69L8.793,4.702L8.81,4.714L8.828,4.726L8.846,4.738L8.863,4.751L8.88,4.763L8.898,4.776L8.914,4.789L8.931,4.803L8.948,4.816L8.964,4.83L8.981,4.844L8.997,4.858L9.013,4.873L9.028,4.887L9.044,4.902L9.059,4.917L9.075,4.932L9.09,4.947L9.105,4.962L9.119,4.978L9.134,4.994L9.148,5.01L9.162,5.026L9.176,5.042L9.19,5.058L9.204,5.075L9.217,5.092L9.23,5.109L9.243,5.126L9.256,5.143L9.268,5.161L9.281,5.178L9.293,5.196L9.305,5.214L9.317,5.232L9.328,5.25L9.339,5.268L9.35,5.287L9.361,5.306L9.372,5.324L9.382,5.343L9.393,5.362L9.403,5.381L9.412,5.401L9.422,5.42L9.431,5.44L9.44,5.46L9.449,5.479L9.458,5.499L9.466,5.519L9.474,5.54L9.482,5.56L9.49,5.58L9.497,5.601L9.504,5.622L9.511,5.642L9.518,5.663L9.524,5.684L9.53,5.705L9.536,5.727L9.542,5.748L9.547,5.769L9.552,5.791L9.557,5.813L9.562,5.834L9.566,5.856L9.57,5.878L9.574,5.9L9.577,5.922L9.581,5.945L9.584,5.967L9.586,5.989L9.589,6.012L9.591,6.034L9.593,6.057L9.594,6.08L9.596,6.102L9.597,6.125L9.597,6.148L9.598,6.171L9.598,6.194L9.598,6.217L9.597,6.24L9.597,6.263L9.596,6.286L9.594,6.309L9.593,6.331L9.591,6.354L9.589,6.377L9.586,6.399L9.584,6.421L9.581,6.444L9.577,6.466L9.574,6.488L9.57,6.51L9.566,6.532L9.562,6.554L9.557,6.576L9.552,6.597L9.547,6.619L9.542,6.64L9.536,6.662L9.53,6.683L9.524,6.704L9.518,6.725L9.511,6.746L9.504,6.767L9.497,6.787L9.49,6.808L9.482,6.828L9.474,6.849L9.466,6.869L9.458,6.889L9.449,6.909L9.44,6.929L9.431,6.948L9.422,6.968L9.412,6.987L9.403,7.007L9.393,7.026L9.382,7.045L9.372,7.064L9.361,7.083L9.35,7.101L9.339,7.12L9.328,7.138L9.317,7.156L9.305,7.174L9.293,7.192L9.281,7.21L9.268,7.228L9.256,7.245L9.243,7.262L9.23,7.279L9.217,7.296L9.204,7.313L9.19,7.33L9.176,7.346L9.162,7.362L9.148,7.379L9.134,7.395L9.119,7.41L9.105,7.426L9.09,7.441L9.075,7.457L9.059,7.472L9.044,7.487L9.028,7.501L9.013,7.516L8.997,7.53L8.981,7.544L8.964,7.558L8.948,7.572L8.931,7.585L8.914,7.599L8.898,7.612L8.88,7.625L8.863,7.638L8.846,7.65L8.828,7.663L8.81,7.675L8.793,7.687L8.774,7.698L8.756,7.71L8.738,7.721L8.719,7.732L8.701,7.743L8.682,7.754L8.663,7.764L8.644,7.774L8.625,7.784L8.606,7.794L8.586,7.804L8.567,7.813L8.547,7.822L8.527,7.831L8.507,7.839L8.487,7.848L8.467,7.856L8.446,7.864L8.426,7.871L8.405,7.879L8.385,7.886L8.364,7.893L8.343,7.9L8.322,7.906L8.301,7.912L8.28,7.918L8.258,7.924L8.237,7.929L8.215,7.934L8.194,7.939L8.172,7.944L8.15,7.948L8.128,7.952L8.106,7.956L8.084,7.959L8.062,7.963L8.04,7.965L8.017,7.968L7.995,7.971L7.972,7.973L7.95,7.975L7.927,7.976L7.904,7.978L7.881,7.979L7.858,7.979L7.835,7.98L7.812,7.98L7.789,7.98L7.766,7.979L7.743,7.979L7.72,7.978L7.698,7.976L7.675,7.975L7.652,7.973L7.63,7.971L7.607,7.968L7.585,7.965L7.563,7.963L7.54,7.959L7.518,7.956L7.496,7.952L7.474,7.948L7.453,7.944L7.431,7.939L7.409,7.934L7.388,7.929L7.366,7.924L7.345,7.918L7.324,7.912L7.303,7.906L7.282,7.9L7.261,7.893L7.24,7.886L7.219,7.879L7.199,7.871L7.178,7.864L7.158,7.856L7.138,7.848L7.117,7.839L7.098,7.831L7.078,7.822L7.058,7.813L7.038,7.804L7.019,7.794L7,7.784L6.98,7.774L6.961,7.764L6.942,7.754L6.924,7.743L6.905,7.732L6.887,7.721L6.868,7.71L6.85,7.698L6.832,7.687L6.814,7.675L6.796,7.663L6.779,7.65L6.761,7.638L6.744,7.625L6.727,7.612L6.71,7.599L6.693,7.585L6.677,7.572L6.66,7.558L6.644,7.544L6.628,7.53L6.612,7.516L6.596,7.501L6.58,7.487L6.565,7.472L6.55,7.457L6.535,7.441L6.52,7.426L6.505,7.41L6.491,7.395L6.476,7.379L6.462,7.362L6.448,7.346L6.435,7.33L6.421,7.313L6.408,7.296L6.394,7.279L6.382,7.262L6.369,7.245L6.356,7.228L6.344,7.21L6.332,7.192L6.32,7.174L6.308,7.156L6.297,7.138L6.285,7.12L6.274,7.101L6.263,7.083L6.253,7.064L6.242,7.045L6.232,7.026L6.222,7.007L6.212,6.987L6.203,6.968L6.193,6.948L6.184,6.929L6.176,6.909L6.167,6.889L6.159,6.869L6.151,6.849L6.143,6.828L6.135,6.808L6.128,6.787L6.12,6.767L6.114,6.746L6.107,6.725L6.1,6.704L6.094,6.683L6.088,6.662L6.083,6.64L6.077,6.619L6.072,6.597L6.067,6.576L6.063,6.554L6.059,6.532L6.054,6.51L6.051,6.488L6.047,6.466L6.044,6.444L6.041,6.421L6.038,6.399L6.036,6.377L6.034,6.354L6.032,6.331L6.03,6.309L6.029,6.286L6.028,6.263L6.027,6.24L6.027,6.217L6.027,6.194L6.027,6.171L6.027,6.148L6.028,6.125L6.029,6.102L6.03,6.08L6.032,6.057L6.034,6.034L6.036,6.012L6.038,5.989L6.041,5.967L6.044,5.945L6.047,5.922L6.051,5.9L6.054,5.878L6.059,5.856L6.063,5.834L6.067,5.813L6.072,5.791L6.077,5.769L6.083,5.748L6.088,5.727L6.094,5.705L6.1,5.684L6.107,5.663L6.114,5.642L6.12,5.622L6.128,5.601L6.135,5.58L6.143,5.56L6.151,5.54L6.159,5.519L6.167,5.499L6.176,5.479L6.184,5.46L6.193,5.44L6.203,5.42L6.212,5.401L6.222,5.381L6.232,5.362L6.242,5.343L6.253,5.324L6.263,5.306L6.274,5.287L6.285,5.268L6.297,5.25L6.308,5.232L6.32,5.214L6.332,5.196L6.344,5.178L6.356,5.161L6.369,5.143L6.382,5.126L6.394,5.109L6.408,5.092L6.421,5.075L6.435,5.058L6.448,5.042L6.462,5.026L6.476,5.01L6.491,4.994L6.505,4.978L6.52,4.962L6.535,4.947L6.55,4.932L6.565,4.917L6.58,4.902L6.596,4.887L6.612,4.873L6.628,4.858L6.644,4.844L6.66,4.83L6.677,4.816L6.693,4.803L6.71,4.789L6.727,4.776L6.744,4.763L6.761,4.751L6.779,4.738L6.796,4.726L6.814,4.714L6.832,4.702L6.85,4.69L6.868,4.678L6.887,4.667L6.905,4.656L6.924,4.645L6.942,4.634L6.961,4.624L6.98,4.614L7,4.604L7.019,4.594L7.038,4.585L7.058,4.575L7.078,4.566L7.098,4.557L7.117,4.549L7.138,4.54L7.158,4.532L7.178,4.524L7.199,4.517L7.219,4.509L7.24,4.502L7.261,4.495L7.282,4.489L7.303,4.482L7.324,4.476L7.345,4.47L7.366,4.465L7.388,4.459L7.409,4.454L7.431,4.449L7.453,4.445L7.474,4.44L7.496,4.436L7.518,4.433L7.54,4.429L7.563,4.426L7.585,4.423L7.607,4.42L7.63,4.418L7.652,4.415L7.675,4.414L7.698,4.412L7.72,4.411L7.743,4.41L7.766,4.409L7.789,4.409L7.812,4.408L7.835,4.409ZM7.796,4.96L7.78,4.96L7.764,4.96L7.748,4.961L7.733,4.962L7.717,4.963L7.701,4.964L7.686,4.966L7.67,4.968L7.655,4.97L7.639,4.972L7.624,4.974L7.609,4.976L7.593,4.979L7.578,4.982L7.563,4.985L7.548,4.988L7.533,4.991L7.518,4.995L7.504,4.998L7.489,5.002L7.474,5.006L7.46,5.011L7.445,5.015L7.431,5.02L7.417,5.024L7.402,5.029L7.388,5.034L7.374,5.04L7.36,5.045L7.346,5.051L7.332,5.056L7.319,5.062L7.305,5.068L7.291,5.075L7.278,5.081L7.264,5.088L7.251,5.094L7.238,5.101L7.225,5.108L7.212,5.116L7.199,5.123L7.186,5.13L7.173,5.138L7.16,5.146L7.148,5.154L7.135,5.162L7.123,5.17L7.111,5.179L7.098,5.187L7.086,5.196L7.074,5.205L7.062,5.214L7.051,5.223L7.039,5.232L7.028,5.241L7.016,5.251L7.005,5.261L6.994,5.27L6.983,5.28L6.972,5.29L6.961,5.301L6.95,5.311L6.94,5.321L6.929,5.332L6.919,5.343L6.909,5.354L6.899,5.364L6.889,5.375L6.879,5.387L6.869,5.398L6.86,5.409L6.85,5.421L6.841,5.433L6.832,5.444L6.823,5.456L6.814,5.468L6.805,5.48L6.797,5.492L6.788,5.505L6.78,5.517L6.772,5.529L6.764,5.542L6.756,5.555L6.749,5.568L6.741,5.58L6.734,5.593L6.727,5.606L6.719,5.62L6.713,5.633L6.706,5.646L6.699,5.66L6.693,5.673L6.687,5.687L6.681,5.7L6.675,5.714L6.669,5.728L6.663,5.742L6.658,5.756L6.653,5.77L6.647,5.784L6.643,5.798L6.638,5.813L6.633,5.827L6.629,5.842L6.625,5.856L6.62,5.871L6.617,5.886L6.613,5.9L6.609,5.915L6.606,5.93L6.603,5.945L6.6,5.96L6.597,5.975L6.594,5.99L6.592,6.006L6.59,6.021L6.588,6.036L6.586,6.052L6.584,6.067L6.583,6.083L6.581,6.099L6.58,6.114L6.579,6.13L6.579,6.146L6.578,6.162L6.578,6.178L6.578,6.194L6.578,6.21L6.578,6.226L6.579,6.242L6.579,6.258L6.58,6.274L6.581,6.29L6.583,6.305L6.584,6.321L6.586,6.336L6.588,6.352L6.59,6.367L6.592,6.383L6.594,6.398L6.597,6.413L6.6,6.428L6.603,6.443L6.606,6.458L6.609,6.473L6.613,6.488L6.617,6.503L6.62,6.517L6.625,6.532L6.629,6.547L6.633,6.561L6.638,6.575L6.643,6.59L6.647,6.604L6.653,6.618L6.658,6.632L6.663,6.646L6.669,6.66L6.675,6.674L6.681,6.688L6.687,6.702L6.693,6.715L6.699,6.729L6.706,6.742L6.713,6.755L6.719,6.769L6.727,6.782L6.734,6.795L6.741,6.808L6.749,6.821L6.756,6.833L6.764,6.846L6.772,6.859L6.78,6.871L6.788,6.884L6.797,6.896L6.805,6.908L6.814,6.92L6.823,6.932L6.832,6.944L6.841,6.956L6.85,6.967L6.86,6.979L6.869,6.99L6.879,7.002L6.889,7.013L6.899,7.024L6.909,7.035L6.919,7.046L6.929,7.056L6.94,7.067L6.95,7.077L6.961,7.088L6.972,7.098L6.983,7.108L6.994,7.118L7.005,7.128L7.016,7.137L7.028,7.147L7.039,7.156L7.051,7.165L7.062,7.175L7.074,7.184L7.086,7.192L7.098,7.201L7.111,7.21L7.123,7.218L7.135,7.226L7.148,7.234L7.16,7.242L7.173,7.25L7.186,7.258L7.199,7.265L7.212,7.273L7.225,7.28L7.238,7.287L7.251,7.294L7.264,7.301L7.278,7.307L7.291,7.314L7.305,7.32L7.319,7.326L7.332,7.332L7.346,7.338L7.36,7.343L7.374,7.349L7.388,7.354L7.402,7.359L7.417,7.364L7.431,7.369L7.445,7.373L7.46,7.378L7.474,7.382L7.489,7.386L7.504,7.39L7.518,7.394L7.533,7.397L7.548,7.4L7.563,7.404L7.578,7.407L7.593,7.409L7.609,7.412L7.624,7.414L7.639,7.417L7.655,7.419L7.67,7.421L7.686,7.422L7.701,7.424L7.717,7.425L7.733,7.426L7.748,7.427L7.764,7.428L7.78,7.428L7.796,7.429L7.812,7.429L7.828,7.429L7.844,7.428L7.86,7.428L7.876,7.427L7.892,7.426L7.908,7.425L7.923,7.424L7.939,7.422L7.955,7.421L7.97,7.419L7.985,7.417L8.001,7.414L8.016,7.412L8.031,7.409L8.046,7.407L8.061,7.404L8.076,7.4L8.091,7.397L8.106,7.394L8.121,7.39L8.136,7.386L8.15,7.382L8.165,7.378L8.179,7.373L8.194,7.369L8.208,7.364L8.222,7.359L8.236,7.354L8.25,7.349L8.264,7.343L8.278,7.338L8.292,7.332L8.306,7.326L8.32,7.32L8.333,7.314L8.347,7.307L8.36,7.301L8.374,7.294L8.387,7.287L8.4,7.28L8.413,7.273L8.426,7.265L8.439,7.258L8.452,7.25L8.464,7.242L8.477,7.234L8.489,7.226L8.502,7.218L8.514,7.21L8.526,7.201L8.538,7.192L8.55,7.184L8.562,7.175L8.574,7.165L8.586,7.156L8.597,7.147L8.608,7.137L8.62,7.128L8.631,7.118L8.642,7.108L8.653,7.098L8.664,7.088L8.674,7.077L8.685,7.067L8.695,7.056L8.706,7.046L8.716,7.035L8.726,7.024L8.736,7.013L8.746,7.002L8.755,6.99L8.765,6.979L8.774,6.967L8.784,6.956L8.793,6.944L8.802,6.932L8.811,6.92L8.819,6.908L8.828,6.896L8.836,6.884L8.844,6.871L8.853,6.859L8.861,6.846L8.868,6.833L8.876,6.821L8.884,6.808L8.891,6.795L8.898,6.782L8.905,6.769L8.912,6.755L8.919,6.742L8.925,6.729L8.932,6.715L8.938,6.702L8.944,6.688L8.95,6.674L8.956,6.66L8.961,6.646L8.967,6.632L8.972,6.618L8.977,6.604L8.982,6.59L8.987,6.575L8.991,6.561L8.996,6.547L9,6.532L9.004,6.517L9.008,6.503L9.012,6.488L9.015,6.473L9.019,6.458L9.022,6.443L9.025,6.428L9.028,6.413L9.03,6.398L9.033,6.383L9.035,6.367L9.037,6.352L9.039,6.336L9.04,6.321L9.042,6.305L9.043,6.29L9.044,6.274L9.045,6.258L9.046,6.242L9.046,6.226L9.047,6.21L9.047,6.194L9.047,6.178L9.046,6.162L9.046,6.146L9.045,6.13L9.044,6.114L9.043,6.099L9.042,6.083L9.04,6.067L9.039,6.052L9.037,6.036L9.035,6.021L9.033,6.006L9.03,5.99L9.028,5.975L9.025,5.96L9.022,5.945L9.019,5.93L9.015,5.915L9.012,5.9L9.008,5.886L9.004,5.871L9,5.856L8.996,5.842L8.991,5.827L8.987,5.813L8.982,5.798L8.977,5.784L8.972,5.77L8.967,5.756L8.961,5.742L8.956,5.728L8.95,5.714L8.944,5.7L8.938,5.687L8.932,5.673L8.925,5.66L8.919,5.646L8.912,5.633L8.905,5.62L8.898,5.606L8.891,5.593L8.884,5.58L8.876,5.568L8.868,5.555L8.861,5.542L8.853,5.529L8.844,5.517L8.836,5.505L8.828,5.492L8.819,5.48L8.811,5.468L8.802,5.456L8.793,5.444L8.784,5.433L8.774,5.421L8.765,5.409L8.755,5.398L8.746,5.387L8.736,5.375L8.726,5.364L8.716,5.354L8.706,5.343L8.695,5.332L8.685,5.321L8.674,5.311L8.664,5.301L8.653,5.29L8.642,5.28L8.631,5.27L8.62,5.261L8.608,5.251L8.597,5.241L8.585,5.232L8.574,5.223L8.562,5.214L8.55,5.205L8.538,5.196L8.526,5.187L8.514,5.179L8.502,5.17L8.489,5.162L8.477,5.154L8.464,5.146L8.452,5.138L8.439,5.13L8.426,5.123L8.413,5.116L8.4,5.108L8.387,5.101L8.374,5.094L8.36,5.088L8.347,5.081L8.333,5.075L8.32,5.068L8.306,5.062L8.292,5.056L8.278,5.051L8.264,5.045L8.25,5.04L8.236,5.034L8.222,5.029L8.208,5.024L8.194,5.02L8.179,5.015L8.165,5.011L8.15,5.006L8.136,5.002L8.121,4.998L8.106,4.995L8.091,4.991L8.076,4.988L8.061,4.985L8.046,4.982L8.031,4.979L8.016,4.976L8.001,4.974L7.985,4.972L7.97,4.97L7.955,4.968L7.939,4.966L7.923,4.964L7.908,4.963L7.892,4.962L7.876,4.961L7.86,4.96L7.844,4.96L7.828,4.96L7.812,4.96L7.796,4.96Z" style="fill:rgb(44,41,45);"/>
        </g>
    </g>
    <g transform="matrix(1,0,0,1,0,0.6)">
        <path d="M25,3.8L17.201,5.894L12.896,9.874L10.65,14.758L10.457,21.069L8.401,25L8.401,29.984L13.736,35.475L16.806,42.535L21.109,46.083L28.891,46.083L33.194,42.535L36.264,35.475L41.599,29.984L41.296,24.152L39.543,21.069L39.35,14.758L37.104,9.874L33.194,5.894L25,3.8Z" style="fill:white;"/>
    </g>
    <g transform="matrix(2.15116,0,0,2.15116,-43.8372,-39.3633)">
        <g>
            <g transform="matrix(1,0,0,1,0.0984544,0)">
                <path d="M28.093,38.351L26.665,35.068L24.185,32.516L24.185,30.053L25.141,28.372C24.412,24.608 27.043,20.344 32,20.344" style="fill:none;stroke:rgb(44,41,45);stroke-width:1.86px;"/>
            </g>
            <g transform="matrix(1,0,0,1,0.0984544,0)">
                <path d="M26.665,35.068L28.093,38.351L30.093,40L32,40" style="fill:none;stroke:rgb(44,41,45);stroke-width:1.86px;"/>
            </g>
        </g>
        <g transform="matrix(-1,0,0,1,64,0)">
            <g transform="matrix(1,0,0,1,0.0984544,0)">
                <path d="M28.093,38.351L26.665,35.068L24.185,32.516L24.185,30.053L25.141,28.372C24.412,24.608 27.043,20.344 32,20.344" style="fill:none;stroke:rgb(44,41,45);stroke-width:1.86px;"/>
            </g>
            <g transform="matrix(1,0,0,1,0.0984544,0)">
                <path d="M26.665,35.068L28.093,38.351L30.093,40L32,40" style="fill:none;stroke:rgb(44,41,45);stroke-width:1.86px;"/>
            </g>
        </g>
    </g>
</svg>
