<?xml version="1.0" encoding="UTF-8" standalone="no"?>
<!DOCTYPE svg PUBLIC "-//W3C//DTD SVG 1.1//EN" "http://www.w3.org/Graphics/SVG/1.1/DTD/svg11.dtd">
<svg width="100%" height="100%" viewBox="0 0 60 60" version="1.1" xmlns="http://www.w3.org/2000/svg" xmlns:xlink="http://www.w3.org/1999/xlink" xml:space="preserve" xmlns:serif="http://www.serif.com/" style="fill-rule:evenodd;clip-rule:evenodd;stroke-linecap:round;stroke-linejoin:bevel;stroke-miterlimit:1;">
    <g transform="matrix(1,0,0,1,-2.0005,-2.0005)">
        <path d="M32,60C31.449,60 31,59.551 31,59C31,58.449 31.449,58 32,58C32.551,58 33,58.449 33,59C33,59.551 32.551,60 32,60ZM59,60C58.449,60 58,59.551 58,59C58,58.449 58.449,58 59,58C59.551,58 60,58.449 60,59C60,59.551 59.551,60 59,60ZM5,60C4.449,60 4,59.551 4,59C4,58.449 4.449,58 5,58C5.551,58 6,58.449 6,59C6,59.551 5.551,60 5,60ZM59,31C59.551,31 60,31.449 60,32C60,32.551 59.551,33 59,33C58.449,33 58,32.551 58,32C58,31.449 58.449,31 59,31ZM5,33C4.449,33 4,32.551 4,32C4,31.449 4.449,31 5,31C5.551,31 6,31.449 6,32C6,32.551 5.551,33 5,33ZM5,4C5.551,4 6,4.449 6,5C6,5.551 5.551,6 5,6C4.449,6 4,5.551 4,5C4,4.449 4.449,4 5,4ZM59,4C59.551,4 60,4.449 60,5C60,5.551 59.551,6 59,6C58.449,6 58,5.551 58,5C58,4.449 58.449,4 59,4ZM32,4C32.551,4 33,4.449 33,5C33,5.551 32.551,6 32,6C31.449,6 31,5.551 31,5C31,4.449 31.449,4 32,4Z" style="fill:rgb(255,97,136);"/>
    </g>
    <g transform="matrix(1,0,0,1,-2.0005,-2.0005)">
        <path d="M48,58C48.551,58 49,58.449 49,59C49,59.551 48.551,60 48,60C47.449,60 47,59.551 47,59C47,58.449 47.449,58 48,58ZM16,60C15.449,60 15,59.551 15,59C15,58.449 15.449,58 16,58C16.551,58 17,58.449 17,59C17,59.551 16.551,60 16,60ZM8,42C7.449,42 7,41.551 7,41C7,40.449 7.449,40 8,40C8.551,40 9,40.449 9,41C9,41.551 8.551,42 8,42ZM56,40C56.551,40 57,40.449 57,41C57,41.551 56.551,42 56,42C55.449,42 55,41.551 55,41C55,40.449 55.449,40 56,40ZM8,24C7.449,24 7,23.551 7,23C7,22.449 7.449,22 8,22C8.551,22 9,22.449 9,23C9,23.551 8.551,24 8,24ZM56,22C56.551,22 57,22.449 57,23C57,23.551 56.551,24 56,24C55.449,24 55,23.551 55,23C55,22.449 55.449,22 56,22ZM16,6C15.449,6 15,5.551 15,5C15,4.449 15.449,4 16,4C16.551,4 17,4.449 17,5C17,5.551 16.551,6 16,6ZM48,4C48.551,4 49,4.449 49,5C49,5.551 48.551,6 48,6C47.449,6 47,5.551 47,5C47,4.449 47.449,4 48,4Z" style="fill:rgb(169,220,118);"/>
    </g>
    <g transform="matrix(1,0,0,1,-2.0005,-2.0005)">
        <path d="M48.102,57.002C50.353,57.174 50.148,62.083 47.221,60.842C45.592,60.152 45.474,56.936 48.102,57.002ZM16.102,57.002C18.353,57.174 18.148,62.083 15.221,60.842C13.592,60.152 13.483,56.936 16.102,57.002ZM48,59C47.999,59.002 48,59 48,59ZM16,59C15.999,59.002 16,59 16,59ZM56.102,39.002C58.353,39.174 58.148,44.083 55.221,42.842C53.592,42.152 53.473,38.935 56.102,39.002ZM8.102,39.002C10.353,39.174 10.148,44.083 7.221,42.842C5.592,42.152 5.483,38.936 8.102,39.002ZM56,41C55.998,41 56,41 56,41ZM8,41C7.998,41 8,41 8,41ZM56.102,21.002C58.353,21.174 58.148,26.083 55.221,24.842C53.592,24.152 53.473,20.935 56.102,21.002ZM8.102,21.002C10.353,21.174 10.148,26.083 7.221,24.842C5.592,24.152 5.483,20.936 8.102,21.002ZM56,23C55.998,23 56,23 56,23ZM8,23C7.998,23 8,23 8,23ZM48.102,3.002C50.353,3.174 50.148,8.083 47.221,6.842C45.589,6.15 45.473,2.935 48.102,3.002ZM16.102,3.002C18.353,3.174 18.148,8.083 15.221,6.842C13.592,6.152 13.482,2.936 16.102,3.002ZM48,5C47.998,5 48,5 48,5ZM16,5C15.998,5 16,5 16,5Z" style="fill:none;"/>
    </g>
    <g transform="matrix(1,0,0,1,-2.0005,-2.0005)">
        <path d="M43.59,22.479C43.846,22.791 44.265,22.917 44.653,22.8L47.004,22.086C47.403,22.69 47.766,23.315 48.088,23.956L46.281,25.648C45.986,25.924 45.886,26.351 46.029,26.73C46.369,27.635 46.622,28.581 46.781,29.542C46.847,29.94 47.146,30.26 47.54,30.352L49.967,30.918C49.989,31.286 50,31.647 50,32C50,32.353 49.989,32.714 49.966,33.082L47.539,33.648C47.145,33.74 46.846,34.06 46.78,34.458C46.621,35.419 46.367,36.365 46.028,37.27C45.886,37.648 45.986,38.076 46.28,38.352L48.087,40.044C47.764,40.687 47.401,41.312 47.003,41.914L44.653,41.199C44.266,41.082 43.847,41.208 43.59,41.52C42.971,42.272 42.276,42.968 41.521,43.589C41.209,43.846 41.082,44.265 41.2,44.652L41.914,47.003C41.31,47.402 40.685,47.765 40.044,48.087L38.352,46.28C38.075,45.985 37.646,45.885 37.27,46.028C36.365,46.368 35.419,46.621 34.458,46.78C34.06,46.846 33.74,47.145 33.648,47.539L33.082,49.966C32.347,50.011 31.653,50.011 30.918,49.966L30.352,47.539C30.26,47.145 29.94,46.846 29.542,46.78C28.581,46.621 27.635,46.367 26.73,46.028C26.35,45.885 25.924,45.986 25.648,46.28L23.955,48.087C23.313,47.765 22.688,47.402 22.085,47.003L22.8,44.653C22.918,44.266 22.791,43.846 22.479,43.59C21.727,42.971 21.031,42.276 20.41,41.521C20.153,41.208 19.733,41.081 19.347,41.2L16.996,41.914C16.597,41.31 16.234,40.685 15.912,40.044L17.719,38.352C18.014,38.076 18.114,37.649 17.971,37.27C17.631,36.365 17.378,35.419 17.219,34.458C17.153,34.06 16.854,33.74 16.46,33.648L14.033,33.082C14.011,32.714 14,32.353 14,32C14,31.647 14.011,31.286 14.034,30.918L16.461,30.352C16.855,30.26 17.154,29.94 17.22,29.542C17.379,28.581 17.633,27.635 17.972,26.73C18.114,26.352 18.014,25.924 17.72,25.648L15.913,23.956C16.236,23.313 16.599,22.688 16.997,22.086L19.347,22.8C19.735,22.919 20.153,22.792 20.41,22.479C21.029,21.727 21.725,21.031 22.479,20.41C22.791,20.153 22.918,19.734 22.8,19.347L22.086,16.996C22.69,16.597 23.315,16.234 23.956,15.912L25.648,17.719C25.924,18.013 26.352,18.113 26.73,17.971C27.635,17.631 28.581,17.378 29.542,17.219C29.94,17.153 30.26,16.854 30.352,16.46L30.918,14.033C31.653,13.988 32.347,13.988 33.082,14.033L33.648,16.46C33.74,16.854 34.06,17.153 34.458,17.219C35.419,17.378 36.365,17.632 37.27,17.971C37.648,18.112 38.075,18.013 38.352,17.719L40.045,15.912C40.687,16.234 41.312,16.597 41.915,16.996L41.2,19.346C41.082,19.733 41.209,20.153 41.521,20.409C42.273,21.029 42.969,21.725 43.59,22.479Z" style="fill:none;"/>
    </g>
    <g transform="matrix(1,0,0,1,-2.0005,-2.0005)">
        <path d="M55,17C55.265,17 55.52,16.895 55.707,16.707L59.707,12.707C59.895,12.52 60,12.265 60,12L60,7.816C61.161,7.402 62,6.302 62,5C62,3.346 60.654,2 59,2C57.346,2 56,3.346 56,5C56,6.302 56.839,7.402 58,7.816L58,11.586L54.586,15L42.467,15C41.741,14.551 40.998,14.133 40.227,13.784C40.154,13.751 40.077,13.736 40,13.722L40,9.414L43.414,6L45.184,6C45.598,7.161 46.698,8 48,8C49.654,8 51,6.654 51,5C51,3.346 49.654,2 48,2C46.698,2 45.598,2.839 45.184,4L43,4C42.735,4 42.48,4.105 42.293,4.293L38.293,8.293C38.105,8.48 38,8.735 38,9L38,15.17L37.339,15.876C36.72,15.671 36.088,15.502 35.447,15.37L34.863,12.868C34.766,12.451 34.413,12.142 33.987,12.1C33.651,12.067 33.328,12.067 33,12.051L33,7.816C34.161,7.402 35,6.302 35,5C35,3.346 33.654,2 32,2C30.346,2 29,3.346 29,5C29,6.302 29.839,7.402 31,7.816L31,12.051C30.672,12.068 30.348,12.067 30.013,12.1C29.587,12.142 29.234,12.451 29.137,12.868L28.553,15.37C27.913,15.502 27.28,15.671 26.662,15.876L26,15.169L26,9C26,8.735 25.895,8.48 25.707,8.293L21.707,4.293C21.52,4.105 21.265,4 21,4L18.816,4C18.402,2.839 17.302,2 16,2C14.346,2 13,3.346 13,5C13,6.654 14.346,8 16,8C17.302,8 18.402,7.161 18.816,6L20.586,6L24,9.414L24,13.722C23.924,13.737 23.847,13.751 23.773,13.784C23.002,14.133 22.26,14.551 21.533,15L9.414,15L6,11.586L6,7.816C7.161,7.402 8,6.302 8,5C8,3.346 6.654,2 5,2C3.346,2 2,3.346 2,5C2,6.302 2.839,7.402 4,7.816L4,12C4,12.265 4.105,12.52 4.293,12.707L8.293,16.707C8.48,16.895 8.735,17 9,17L19.997,17L20.697,19.304C20.207,19.741 19.74,20.207 19.304,20.697L16.88,19.96C16.472,19.835 16.028,19.984 15.778,20.332C15.391,20.87 15.03,21.427 14.697,22L10.815,22C10.402,20.839 9.302,20 8,20C6.346,20 5,21.346 5,23C5,24.654 6.346,26 8,26C9.302,26 10.402,25.161 10.816,24L13.722,24C13.659,24.331 13.758,24.677 14.012,24.915L15.876,26.661C15.671,27.28 15.502,27.912 15.37,28.553L12.868,29.137C12.451,29.234 12.142,29.587 12.1,30.013C12.067,30.349 12.067,30.67 12.05,31L7.816,31C7.402,29.839 6.302,29 5,29C3.346,29 2,30.346 2,32C2,33.654 3.346,35 5,35C6.302,35 7.402,34.161 7.816,33L12.051,33C12.068,33.33 12.068,33.651 12.101,33.987C12.143,34.413 12.452,34.766 12.869,34.863L15.371,35.447C15.503,36.087 15.672,36.72 15.877,37.338L14.013,39.084C13.759,39.322 13.66,39.668 13.723,40L10.817,40C10.402,38.839 9.302,38 8,38C6.346,38 5,39.346 5,41C5,42.654 6.346,44 8,44C9.302,44 10.402,43.161 10.816,42L14.698,42C15.03,42.572 15.39,43.129 15.778,43.667C16.028,44.014 16.468,44.164 16.881,44.039L19.305,43.303C19.742,43.794 20.208,44.26 20.698,44.696L19.996,47L9,47C8.735,47 8.48,47.105 8.293,47.293L4.293,51.293C4.105,51.48 4,51.735 4,52L4,56.184C2.839,56.598 2,57.698 2,59C2,60.654 3.346,62 5,62C6.654,62 8,60.654 8,59C8,57.698 7.161,56.598 6,56.184L6,52.414L9.414,49L21.533,49C22.259,49.448 23.001,49.867 23.773,50.216C23.846,50.249 23.923,50.264 24,50.279L24,54.586L20.586,58L18.816,58C18.402,56.839 17.302,56 16,56C14.346,56 13,57.346 13,59C13,60.654 14.346,62 16,62C17.302,62 18.402,61.161 18.816,60L21,60C21.265,60 21.52,59.895 21.707,59.707L25.707,55.707C25.895,55.52 26,55.265 26,55L26,48.83L26.661,48.124C27.28,48.329 27.912,48.498 28.553,48.63L29.137,51.132C29.234,51.549 29.587,51.858 30.013,51.9C30.349,51.933 30.67,51.933 31,51.95L31,56.185C29.839,56.599 29,57.699 29,59.001C29,60.655 30.346,62.001 32,62.001C33.654,62.001 35,60.655 35,59.001C35,57.699 34.161,56.599 33,56.185L33,51.95C33.33,51.933 33.652,51.933 33.987,51.9C34.413,51.858 34.766,51.549 34.863,51.132L35.447,48.63C36.087,48.498 36.72,48.329 37.338,48.124L38,48.831L38,55C38,55.265 38.105,55.52 38.293,55.707L42.293,59.707C42.48,59.895 42.735,60 43,60L45.184,60C45.598,61.161 46.698,62 48,62C49.654,62 51,60.654 51,59C51,57.346 49.654,56 48,56C46.698,56 45.598,56.839 45.184,58L43.414,58L40,54.586L40,50.279C40.076,50.264 40.153,50.25 40.227,50.217C40.998,49.868 41.74,49.45 42.467,49.001L54.586,49.001L58,52.414L58,56.184C56.839,56.598 56,57.698 56,59C56,60.654 57.346,62 59,62C60.654,62 62,60.654 62,59C62,57.698 61.161,56.598 60,56.184L60,52C60,51.735 59.895,51.48 59.707,51.293L55.707,47.293C55.52,47.105 55.265,47 55,47L44.003,47L43.303,44.696C43.794,44.259 44.26,43.793 44.696,43.303L47.119,44.04C47.528,44.164 47.972,44.015 48.221,43.668C48.609,43.13 48.97,42.572 49.302,42L53.184,42C53.598,43.161 54.698,44 56,44C57.654,44 59,42.654 59,41C59,39.346 57.654,38 56,38C54.698,38 53.598,38.839 53.184,40L50.278,40C50.341,39.669 50.242,39.323 49.988,39.085L48.124,37.339C48.329,36.72 48.498,36.088 48.63,35.447L51.132,34.863C51.549,34.766 51.858,34.413 51.9,33.987C51.933,33.651 51.933,33.33 51.95,33L56.185,33C56.599,34.161 57.699,35 59.001,35C60.655,35 62.001,33.654 62.001,32C62.001,30.346 60.655,29 59.001,29C57.699,29 56.599,29.839 56.185,31L51.95,31C51.933,30.67 51.933,30.348 51.9,30.013C51.858,29.587 51.549,29.234 51.132,29.137L48.63,28.553C48.498,27.913 48.329,27.28 48.124,26.662L49.988,24.916C50.242,24.678 50.341,24.332 50.278,24L53.184,24C53.598,25.161 54.698,26 56,26C57.654,26 59,24.654 59,23C59,21.346 57.654,20 56,20C54.698,20 53.598,20.839 53.184,22L49.302,22C48.97,21.428 48.61,20.871 48.222,20.333C47.972,19.986 47.529,19.836 47.119,19.961L44.695,20.697C44.258,20.206 43.792,19.74 43.302,19.304L44.002,17L55,17ZM59,4C59.551,4 60,4.449 60,5C60,5.551 59.551,6 59,6C58.449,6 58,5.551 58,5C58,4.449 58.449,4 59,4ZM48,4C48.551,4 49,4.449 49,5C49,5.551 48.551,6 48,6C47.449,6 47,5.551 47,5C47,4.449 47.449,4 48,4ZM16,6C15.449,6 15,5.551 15,5C15,4.449 15.449,4 16,4C16.551,4 17,4.449 17,5C17,5.551 16.551,6 16,6ZM5,4C5.551,4 6,4.449 6,5C6,5.551 5.551,6 5,6C4.449,6 4,5.551 4,5C4,4.449 4.449,4 5,4ZM8,24C7.449,24 7,23.551 7,23C7,22.449 7.449,22 8,22C8.551,22 9,22.449 9,23C9,23.551 8.551,24 8,24ZM8,42C7.449,42 7,41.551 7,41C7,40.449 7.449,40 8,40C8.551,40 9,40.449 9,41C9,41.551 8.551,42 8,42ZM5,60C4.449,60 4,59.551 4,59C4,58.449 4.449,58 5,58C5.551,58 6,58.449 6,59C6,59.551 5.551,60 5,60ZM16,60C15.449,60 15,59.551 15,59C15,58.449 15.449,58 16,58C16.551,58 17,58.449 17,59C17,59.551 16.551,60 16,60ZM48,58C48.551,58 49,58.449 49,59C49,59.551 48.551,60 48,60C47.449,60 47,59.551 47,59C47,58.449 47.449,58 48,58ZM59,60C58.449,60 58,59.551 58,59C58,58.449 58.449,58 59,58C59.551,58 60,58.449 60,59C60,59.551 59.551,60 59,60ZM56,40C56.551,40 57,40.449 57,41C57,41.551 56.551,42 56,42C55.449,42 55,41.551 55,41C55,40.449 55.449,40 56,40ZM56,22C56.551,22 57,22.449 57,23C57,23.551 56.551,24 56,24C55.449,24 55,23.551 55,23C55,22.449 55.449,22 56,22ZM32,4C32.551,4 33,4.449 33,5C33,5.551 32.551,6 32,6C31.449,6 31,5.551 31,5C31,4.449 31.449,4 32,4ZM5,33C4.449,33 4,32.551 4,32C4,31.449 4.449,31 5,31C5.551,31 6,31.449 6,32C6,32.551 5.551,33 5,33ZM32,60C31.449,60 31,59.551 31,59C31,58.449 31.449,58 32,58C32.551,58 33,58.449 33,59C33,59.551 32.551,60 32,60ZM59,31C59.551,31 60,31.449 60,32C60,32.551 59.551,33 59,33C58.449,33 58,32.551 58,32C58,31.449 58.449,31 59,31ZM43.59,22.479C43.846,22.791 44.265,22.917 44.653,22.8L47.004,22.086C47.403,22.69 47.766,23.315 48.088,23.956L46.281,25.648C45.986,25.924 45.886,26.351 46.029,26.73C46.369,27.635 46.622,28.581 46.781,29.542C46.847,29.94 47.146,30.26 47.54,30.352L49.967,30.918C49.989,31.286 50,31.647 50,32C50,32.353 49.989,32.714 49.966,33.082L47.539,33.648C47.145,33.74 46.846,34.06 46.78,34.458C46.621,35.419 46.367,36.365 46.028,37.27C45.886,37.648 45.986,38.076 46.28,38.352L48.087,40.044C47.764,40.687 47.401,41.312 47.003,41.914L44.653,41.199C44.266,41.082 43.847,41.208 43.59,41.52C42.971,42.272 42.276,42.968 41.521,43.589C41.209,43.846 41.082,44.265 41.2,44.652L41.914,47.003C41.31,47.402 40.685,47.765 40.044,48.087L38.352,46.28C38.075,45.985 37.646,45.885 37.27,46.028C36.365,46.368 35.419,46.621 34.458,46.78C34.06,46.846 33.74,47.145 33.648,47.539L33.082,49.966C32.347,50.011 31.653,50.011 30.918,49.966L30.352,47.539C30.26,47.145 29.94,46.846 29.542,46.78C28.581,46.621 27.635,46.367 26.73,46.028C26.35,45.885 25.924,45.986 25.648,46.28L23.955,48.087C23.313,47.765 22.688,47.402 22.085,47.003L22.8,44.653C22.918,44.266 22.791,43.846 22.479,43.59C21.727,42.971 21.031,42.276 20.41,41.521C20.153,41.208 19.733,41.081 19.347,41.2L16.996,41.914C16.597,41.31 16.234,40.685 15.912,40.044L17.719,38.352C18.014,38.076 18.114,37.649 17.971,37.27C17.631,36.365 17.378,35.419 17.219,34.458C17.153,34.06 16.854,33.74 16.46,33.648L14.033,33.082C14.011,32.714 14,32.353 14,32C14,31.647 14.011,31.286 14.034,30.918L16.461,30.352C16.855,30.26 17.154,29.94 17.22,29.542C17.379,28.581 17.633,27.635 17.972,26.73C18.114,26.352 18.014,25.924 17.72,25.648L15.913,23.956C16.236,23.313 16.599,22.688 16.997,22.086L19.347,22.8C19.735,22.919 20.153,22.792 20.41,22.479C21.029,21.727 21.725,21.031 22.479,20.41C22.791,20.153 22.918,19.734 22.8,19.347L22.086,16.996C22.69,16.597 23.315,16.234 23.956,15.912L25.648,17.719C25.924,18.013 26.352,18.113 26.73,17.971C27.635,17.631 28.581,17.378 29.542,17.219C29.94,17.153 30.26,16.854 30.352,16.46L30.918,14.033C31.653,13.988 32.347,13.988 33.082,14.033L33.648,16.46C33.74,16.854 34.06,17.153 34.458,17.219C35.419,17.378 36.365,17.632 37.27,17.971C37.648,18.112 38.075,18.013 38.352,17.719L40.045,15.912C40.687,16.234 41.312,16.597 41.915,16.996L41.2,19.346C41.082,19.733 41.209,20.153 41.521,20.409C42.273,21.029 42.969,21.725 43.59,22.479Z" style="fill:rgb(44,41,45);fill-rule:nonzero;"/>
    </g>
    <g transform="matrix(1.07564,0,0,1.07564,-4.42105,-4.32903)">
        <g>
            <g transform="matrix(1,0,0,1,0.0984544,0)">
                <path d="M32,43.378L27.836,43.378L25.001,41.223L26.836,40L26.665,36.989L26.665,35.068L24.185,32.516L24.185,30.053L25.141,28.372C24.412,24.608 27.043,20.344 32,20.344" style="fill:none;stroke:rgb(44,41,45);stroke-width:1.86px;"/>
            </g>
            <g transform="matrix(1,0,0,1,0.0984544,0)">
                <path d="M26.665,35.068L28.093,38.351L30.093,40L32,40" style="fill:none;stroke:rgb(44,41,45);stroke-width:1.86px;"/>
            </g>
        </g>
        <g transform="matrix(-1,0,0,1,64,0)">
            <g transform="matrix(1,0,0,1,0.0984544,0)">
                <path d="M32,43.378L27.836,43.378L25.001,41.223L26.836,40L26.665,36.989L26.665,35.068L24.185,32.516L24.185,30.053L25.141,28.372C24.412,24.608 27.043,20.344 32,20.344" style="fill:none;stroke:rgb(44,41,45);stroke-width:1.86px;"/>
            </g>
            <g transform="matrix(1,0,0,1,0.0984544,0)">
                <path d="M26.665,35.068L28.093,38.351L30.093,40L32,40" style="fill:none;stroke:rgb(44,41,45);stroke-width:1.86px;"/>
            </g>
        </g>
    </g>
</svg>
